<mxfile host="65bd71144e">
    <diagram id="wBC3t90wQ1BqMCr0Bqrm" name="Page-1">
        <mxGraphModel dx="734" dy="391" grid="1" gridSize="10" guides="1" tooltips="1" connect="1" arrows="1" fold="1" page="1" pageScale="1" pageWidth="850" pageHeight="1100" math="0" shadow="0">
            <root>
                <mxCell id="0"/>
                <mxCell id="1" parent="0"/>
                <mxCell id="2" value="&lt;font style=&quot;font-size: 18px;&quot;&gt;&lt;b&gt;Who Cares?&lt;/b&gt;&lt;/font&gt;" style="text;html=1;align=center;verticalAlign=middle;resizable=0;points=[];autosize=1;strokeColor=none;fillColor=none;" parent="1" vertex="1">
                    <mxGeometry x="315" y="50" width="130" height="40" as="geometry"/>
                </mxCell>
                <mxCell id="3" value="&lt;font style=&quot;font-size: 18px;&quot;&gt;--&amp;gt; It's important to have a precise vocabulary to&amp;nbsp; talk about how our code performs&lt;br&gt;--&amp;gt; Useful for discussing trade-offs between diiferent approaches.&lt;br&gt;--&amp;gt; When&amp;nbsp; your code slows down or crashes, identifying parts os the code&lt;br&gt;that are inefficient can help us find pain points in our applications.&lt;br&gt;--&amp;gt; Less important: it comes up iin interviews!&lt;/font&gt;" style="text;html=1;align=left;verticalAlign=middle;resizable=0;points=[];autosize=1;strokeColor=none;fillColor=none;" parent="1" vertex="1">
                    <mxGeometry x="40" y="110" width="680" height="120" as="geometry"/>
                </mxCell>
                <mxCell id="4" value="&lt;b&gt;An Example&lt;/b&gt;" style="text;html=1;align=center;verticalAlign=middle;resizable=0;points=[];autosize=1;strokeColor=none;fillColor=none;fontSize=18;" parent="1" vertex="1">
                    <mxGeometry x="295" y="270" width="130" height="40" as="geometry"/>
                </mxCell>
                <mxCell id="5" value="Suppose we want to write a function that calculates the sum of all numbers from 1 up to &lt;br&gt;(and including) some number n." style="text;html=1;align=left;verticalAlign=middle;resizable=0;points=[];autosize=1;strokeColor=none;fillColor=none;fontSize=18;" parent="1" vertex="1">
                    <mxGeometry x="40" y="320" width="720" height="60" as="geometry"/>
                </mxCell>
                <mxCell id="7" value="&lt;b&gt;ZOMG WUT&lt;/b&gt;" style="text;html=1;align=center;verticalAlign=middle;resizable=0;points=[];autosize=1;strokeColor=none;fillColor=none;fontSize=18;" parent="1" vertex="1">
                    <mxGeometry x="370" y="605" width="120" height="40" as="geometry"/>
                </mxCell>
                <mxCell id="8" value="&lt;div style=&quot;text-align: justify;&quot;&gt;&lt;span style=&quot;background-color: initial;&quot;&gt;&amp;nbsp; &amp;nbsp;addUpTo (n) = 1 + 2 + 3 + ... + (n - 1) + n&lt;/span&gt;&lt;/div&gt;&lt;div style=&quot;text-align: justify;&quot;&gt;&lt;span style=&quot;background-color: initial;&quot;&gt;+ addUpTo (n) = n + (n -1) + (n - 2) + ... + 2 + 1&lt;/span&gt;&lt;/div&gt;" style="text;html=1;align=center;verticalAlign=middle;resizable=0;points=[];autosize=1;strokeColor=none;fillColor=none;fontSize=18;" parent="1" vertex="1">
                    <mxGeometry x="270" y="660" width="400" height="60" as="geometry"/>
                </mxCell>
                <mxCell id="9" value="" style="edgeStyle=none;orthogonalLoop=1;jettySize=auto;html=1;fontSize=18;" parent="1" edge="1">
                    <mxGeometry width="100" relative="1" as="geometry">
                        <mxPoint x="190" y="720" as="sourcePoint"/>
                        <mxPoint x="700" y="720" as="targetPoint"/>
                        <Array as="points"/>
                    </mxGeometry>
                </mxCell>
                <mxCell id="10" value="2 addpTo (n) = (n + 1) + (n + 1)) + (n + 1) + ... + (n + 1) + (n + 1)" style="text;html=1;align=center;verticalAlign=middle;resizable=0;points=[];autosize=1;strokeColor=none;fillColor=none;fontSize=18;" parent="1" vertex="1">
                    <mxGeometry x="280" y="730" width="530" height="40" as="geometry"/>
                </mxCell>
                <mxCell id="11" value="" style="edgeStyle=none;orthogonalLoop=1;jettySize=auto;html=1;fontSize=18;" parent="1" edge="1">
                    <mxGeometry width="100" relative="1" as="geometry">
                        <mxPoint x="420" y="780" as="sourcePoint"/>
                        <mxPoint x="812.2856794084821" y="780" as="targetPoint"/>
                        <Array as="points"/>
                    </mxGeometry>
                </mxCell>
                <mxCell id="12" value="n copies" style="text;html=1;align=center;verticalAlign=middle;resizable=0;points=[];autosize=1;strokeColor=none;fillColor=none;fontSize=18;" parent="1" vertex="1">
                    <mxGeometry x="545" y="780" width="90" height="40" as="geometry"/>
                </mxCell>
                <mxCell id="13" value="2 addUpTo (n) = n *&amp;nbsp; (n + 1)&lt;br&gt;addUpTo (n) = n(n + 1) / 2" style="text;html=1;align=center;verticalAlign=middle;resizable=0;points=[];autosize=1;strokeColor=none;fillColor=none;fontSize=18;" parent="1" vertex="1">
                    <mxGeometry x="455" y="840" width="240" height="60" as="geometry"/>
                </mxCell>
                <mxCell id="14" value="&lt;div style=&quot;color: rgb(201, 209, 217); background-color: rgb(13, 17, 23); font-family: Consolas, &amp;quot;Courier New&amp;quot;, monospace; line-height: 19px;&quot;&gt;&lt;div style=&quot;&quot;&gt;&lt;span style=&quot;color: rgb(139, 148, 158);&quot;&gt;&lt;font style=&quot;font-size: 18px;&quot;&gt;// method 2&lt;/font&gt;&lt;/span&gt;&lt;/div&gt;&lt;div style=&quot;&quot;&gt;&lt;font size=&quot;3&quot;&gt;&lt;span style=&quot;color: #ec8e2c;&quot;&gt;function&lt;/span&gt; &lt;span style=&quot;color: #d2a8ff;&quot;&gt;addUpTo_2&lt;/span&gt;(&lt;span style=&quot;color: #fdac54;&quot;&gt;n&lt;/span&gt;){&lt;/font&gt;&lt;/div&gt;&lt;div style=&quot;&quot;&gt;&lt;font size=&quot;3&quot;&gt;&amp;nbsp; &lt;span style=&quot;color: #ec8e2c;&quot;&gt;return&lt;/span&gt; &lt;span style=&quot;color: #fdac54;&quot;&gt;n&lt;/span&gt; &lt;span style=&quot;color: #ec8e2c;&quot;&gt;*&lt;/span&gt; (&lt;span style=&quot;color: #fdac54;&quot;&gt;n&lt;/span&gt; &lt;span style=&quot;color: #ec8e2c;&quot;&gt;+&lt;/span&gt; &lt;span style=&quot;color: #79c0ff;&quot;&gt;1&lt;/span&gt;) &lt;span style=&quot;color: #ec8e2c;&quot;&gt;/&lt;/span&gt; &lt;span style=&quot;color: #79c0ff;&quot;&gt;2&lt;/span&gt;;&lt;/font&gt;&lt;/div&gt;&lt;div style=&quot;&quot;&gt;&lt;font size=&quot;3&quot;&gt;}&lt;/font&gt;&lt;/div&gt;&lt;font size=&quot;3&quot;&gt;&lt;br&gt;&lt;/font&gt;&lt;div style=&quot;&quot;&gt;&lt;font size=&quot;3&quot;&gt;&lt;span style=&quot;color: #79c0ff;&quot;&gt;console&lt;/span&gt;.&lt;span style=&quot;color: #d2a8ff;&quot;&gt;log&lt;/span&gt;(&lt;span style=&quot;color: #d2a8ff;&quot;&gt;addUpTo_2&lt;/span&gt;(&lt;span style=&quot;color: #79c0ff;&quot;&gt;6&lt;/span&gt;));&lt;/font&gt;&lt;/div&gt;&lt;br&gt;&lt;/div&gt;" style="text;html=1;align=left;verticalAlign=middle;resizable=0;points=[];autosize=1;strokeColor=none;fillColor=none;fontSize=18;" parent="1" vertex="1">
                    <mxGeometry x="445" y="400" width="250" height="150" as="geometry"/>
                </mxCell>
                <mxCell id="15" value="&lt;div style=&quot;color: rgb(201, 209, 217); background-color: rgb(13, 17, 23); font-family: Consolas, &amp;quot;Courier New&amp;quot;, monospace; line-height: 19px;&quot;&gt;&lt;div style=&quot;&quot;&gt;&lt;span style=&quot;color: rgb(139, 148, 158);&quot;&gt;&lt;font style=&quot;font-size: 18px;&quot;&gt;// method 1&lt;/font&gt;&lt;/span&gt;&lt;/div&gt;&lt;div style=&quot;&quot;&gt;&lt;font size=&quot;3&quot;&gt;&lt;span style=&quot;color: #ec8e2c;&quot;&gt;function&lt;/span&gt; &lt;span style=&quot;color: #d2a8ff;&quot;&gt;addUpTo_1&lt;/span&gt;(&lt;span style=&quot;color: #fdac54;&quot;&gt;n&lt;/span&gt;){&lt;/font&gt;&lt;/div&gt;&lt;div style=&quot;&quot;&gt;&lt;font size=&quot;3&quot;&gt;&amp;nbsp; &lt;span style=&quot;color: #ec8e2c;&quot;&gt;let&lt;/span&gt; total &lt;span style=&quot;color: #ec8e2c;&quot;&gt;=&lt;/span&gt; &lt;span style=&quot;color: #79c0ff;&quot;&gt;0&lt;/span&gt;;&lt;/font&gt;&lt;/div&gt;&lt;div style=&quot;&quot;&gt;&lt;font size=&quot;3&quot;&gt;&amp;nbsp; &lt;span style=&quot;color: #ec8e2c;&quot;&gt;for&lt;/span&gt;(&lt;span style=&quot;color: #ec8e2c;&quot;&gt;let&lt;/span&gt; i &lt;span style=&quot;color: #ec8e2c;&quot;&gt;=&lt;/span&gt; &lt;span style=&quot;color: #79c0ff;&quot;&gt;1&lt;/span&gt;; i &lt;span style=&quot;color: #ec8e2c;&quot;&gt;&amp;lt;=&lt;/span&gt; &lt;span style=&quot;color: #fdac54;&quot;&gt;n&lt;/span&gt;; i&lt;span style=&quot;color: #ec8e2c;&quot;&gt;++&lt;/span&gt;){&lt;/font&gt;&lt;/div&gt;&lt;div style=&quot;&quot;&gt;&lt;font size=&quot;3&quot;&gt;&amp;nbsp; &amp;nbsp; total &lt;span style=&quot;color: #ec8e2c;&quot;&gt;+=&lt;/span&gt; i;&lt;/font&gt;&lt;/div&gt;&lt;div style=&quot;&quot;&gt;&lt;font size=&quot;3&quot;&gt;&amp;nbsp; }&lt;/font&gt;&lt;/div&gt;&lt;div style=&quot;&quot;&gt;&lt;font size=&quot;3&quot;&gt;&amp;nbsp; &lt;span style=&quot;color: #ec8e2c;&quot;&gt;return&lt;/span&gt; total;&lt;/font&gt;&lt;/div&gt;&lt;div style=&quot;&quot;&gt;&lt;font size=&quot;3&quot;&gt;}&lt;/font&gt;&lt;/div&gt;&lt;font size=&quot;3&quot;&gt;&lt;br&gt;&lt;/font&gt;&lt;div style=&quot;&quot;&gt;&lt;font size=&quot;3&quot;&gt;&lt;span style=&quot;color: rgb(121, 192, 255);&quot;&gt;console&lt;/span&gt;.&lt;span style=&quot;color: rgb(210, 168, 255);&quot;&gt;log&lt;/span&gt;(&lt;span style=&quot;color: rgb(210, 168, 255);&quot;&gt;addUpTo_1&lt;/span&gt;(&lt;span style=&quot;color: rgb(121, 192, 255);&quot;&gt;6&lt;/span&gt;));&lt;/font&gt;&lt;/div&gt;&lt;/div&gt;" style="text;html=1;align=left;verticalAlign=middle;resizable=0;points=[];autosize=1;strokeColor=none;fillColor=none;fontSize=18;" parent="1" vertex="1">
                    <mxGeometry x="60" y="395" width="290" height="210" as="geometry"/>
                </mxCell>
                <mxCell id="16" value="Which one is better" style="text;html=1;align=center;verticalAlign=middle;resizable=0;points=[];autosize=1;strokeColor=none;fillColor=none;fontSize=18;" parent="1" vertex="1">
                    <mxGeometry x="20" y="670" width="180" height="40" as="geometry"/>
                </mxCell>
                <mxCell id="17" value="&lt;b&gt;What does better mean?&lt;/b&gt;" style="text;html=1;align=center;verticalAlign=middle;resizable=0;points=[];autosize=1;strokeColor=none;fillColor=none;fontSize=18;" parent="1" vertex="1">
                    <mxGeometry x="230" y="1140" width="230" height="40" as="geometry"/>
                </mxCell>
                <mxCell id="18" value="--&amp;gt; Faster?&lt;br&gt;--&amp;gt; Less memory-itensive?&lt;br&gt;--&amp;gt; more readable?" style="text;html=1;align=left;verticalAlign=middle;resizable=0;points=[];autosize=1;strokeColor=none;fillColor=none;fontSize=18;" parent="1" vertex="1">
                    <mxGeometry x="160" y="1220" width="240" height="80" as="geometry"/>
                </mxCell>
                <mxCell id="21" value="" style="edgeStyle=orthogonalEdgeStyle;html=1;fontSize=18;" parent="1" source="19" edge="1">
                    <mxGeometry relative="1" as="geometry">
                        <mxPoint x="280" y="1241" as="targetPoint"/>
                    </mxGeometry>
                </mxCell>
                <mxCell id="19" value="Let's focus here first" style="text;html=1;align=center;verticalAlign=middle;resizable=0;points=[];autosize=1;strokeColor=none;fillColor=none;fontSize=18;" parent="1" vertex="1">
                    <mxGeometry x="600" y="1210" width="180" height="40" as="geometry"/>
                </mxCell>
                <mxCell id="22" value="&lt;b&gt;Why not use timers?&lt;/b&gt;" style="text;html=1;align=center;verticalAlign=middle;resizable=0;points=[];autosize=1;strokeColor=none;fillColor=none;fontSize=18;" parent="1" vertex="1">
                    <mxGeometry x="162" y="1440" width="200" height="40" as="geometry"/>
                </mxCell>
                <mxCell id="23" value="&lt;div style=&quot;color: rgb(201, 209, 217); background-color: rgb(13, 17, 23); font-family: Consolas, &amp;quot;Courier New&amp;quot;, monospace; line-height: 19px;&quot;&gt;&lt;div style=&quot;&quot;&gt;&lt;span style=&quot;color: rgb(139, 148, 158);&quot;&gt;&lt;font style=&quot;font-size: 18px;&quot;&gt;// add1_timing&lt;/font&gt;&lt;/span&gt;&lt;/div&gt;&lt;div style=&quot;&quot;&gt;&lt;font size=&quot;3&quot;&gt;&lt;span style=&quot;color: #ec8e2c;&quot;&gt;function&lt;/span&gt; &lt;span style=&quot;color: #d2a8ff;&quot;&gt;add1_timing&lt;/span&gt;(&lt;span style=&quot;color: #fdac54;&quot;&gt;n&lt;/span&gt;){&lt;/font&gt;&lt;/div&gt;&lt;div style=&quot;&quot;&gt;&lt;font size=&quot;3&quot;&gt;&amp;nbsp; &lt;span style=&quot;color: #ec8e2c;&quot;&gt;let&lt;/span&gt; total &lt;span style=&quot;color: #ec8e2c;&quot;&gt;=&lt;/span&gt; &lt;span style=&quot;color: #79c0ff;&quot;&gt;0&lt;/span&gt;;&lt;/font&gt;&lt;/div&gt;&lt;div style=&quot;&quot;&gt;&lt;font size=&quot;3&quot;&gt;&amp;nbsp; &lt;span style=&quot;color: #ec8e2c;&quot;&gt;for&lt;/span&gt;(&lt;span style=&quot;color: #ec8e2c;&quot;&gt;let&lt;/span&gt; i &lt;span style=&quot;color: #ec8e2c;&quot;&gt;=&lt;/span&gt; &lt;span style=&quot;color: #79c0ff;&quot;&gt;1&lt;/span&gt;; i &lt;span style=&quot;color: #ec8e2c;&quot;&gt;&amp;lt;=&lt;/span&gt; &lt;span style=&quot;color: #fdac54;&quot;&gt;n&lt;/span&gt;; i&lt;span style=&quot;color: #ec8e2c;&quot;&gt;++&lt;/span&gt;){&lt;/font&gt;&lt;/div&gt;&lt;div style=&quot;&quot;&gt;&lt;font size=&quot;3&quot;&gt;&amp;nbsp; &amp;nbsp; total &lt;span style=&quot;color: #ec8e2c;&quot;&gt;+=&lt;/span&gt; &lt;span style=&quot;color: #79c0ff;&quot;&gt;1&lt;/span&gt;;&lt;/font&gt;&lt;/div&gt;&lt;div style=&quot;&quot;&gt;&lt;font size=&quot;3&quot;&gt;&amp;nbsp; }&lt;/font&gt;&lt;/div&gt;&lt;div style=&quot;&quot;&gt;&lt;font size=&quot;3&quot;&gt;&amp;nbsp; &lt;span style=&quot;color: #ec8e2c;&quot;&gt;return&lt;/span&gt; total;&lt;/font&gt;&lt;/div&gt;&lt;div style=&quot;&quot;&gt;&lt;font size=&quot;3&quot;&gt;}&lt;/font&gt;&lt;/div&gt;&lt;font size=&quot;3&quot;&gt;&lt;br&gt;&lt;/font&gt;&lt;div style=&quot;&quot;&gt;&lt;font size=&quot;3&quot;&gt;&lt;span style=&quot;color: #ec8e2c;&quot;&gt;var&lt;/span&gt; t1 &lt;span style=&quot;color: #ec8e2c;&quot;&gt;=&lt;/span&gt; &lt;span style=&quot;color: #79c0ff;&quot;&gt;performance&lt;/span&gt;.&lt;span style=&quot;color: #d2a8ff;&quot;&gt;now&lt;/span&gt;();&lt;/font&gt;&lt;/div&gt;&lt;div style=&quot;&quot;&gt;&lt;font size=&quot;3&quot;&gt;&lt;span style=&quot;color: #d2a8ff;&quot;&gt;add1_timing&lt;/span&gt;(&lt;span style=&quot;color: #79c0ff;&quot;&gt;10000000000&lt;/span&gt;);&lt;/font&gt;&lt;/div&gt;&lt;div style=&quot;&quot;&gt;&lt;font size=&quot;3&quot;&gt;&lt;span style=&quot;color: #ec8e2c;&quot;&gt;var&lt;/span&gt; t2 &lt;span style=&quot;color: #ec8e2c;&quot;&gt;=&lt;/span&gt; &lt;span style=&quot;color: #79c0ff;&quot;&gt;performance&lt;/span&gt;.&lt;span style=&quot;color: #d2a8ff;&quot;&gt;now&lt;/span&gt;();&lt;/font&gt;&lt;/div&gt;&lt;div style=&quot;&quot;&gt;&lt;font size=&quot;3&quot;&gt;&lt;span style=&quot;color: rgb(121, 192, 255);&quot;&gt;console&lt;/span&gt;.&lt;span style=&quot;color: rgb(210, 168, 255);&quot;&gt;log&lt;/span&gt;(&lt;span style=&quot;color: rgb(165, 214, 255);&quot;&gt;`Time Elased: &lt;/span&gt;&lt;span style=&quot;color: rgb(165, 214, 255);&quot;&gt;${(&lt;/span&gt;t2&lt;span style=&quot;color: rgb(165, 214, 255);&quot;&gt; &lt;/span&gt;&lt;span style=&quot;color: rgb(236, 142, 44);&quot;&gt;-&lt;/span&gt;&lt;span style=&quot;color: rgb(165, 214, 255);&quot;&gt; &lt;/span&gt;t1&lt;span style=&quot;color: rgb(165, 214, 255);&quot;&gt;) &lt;/span&gt;&lt;span style=&quot;color: rgb(236, 142, 44);&quot;&gt;/&lt;/span&gt;&lt;span style=&quot;color: rgb(165, 214, 255);&quot;&gt; &lt;/span&gt;&lt;span style=&quot;color: rgb(121, 192, 255);&quot;&gt;1000&lt;/span&gt;&lt;span style=&quot;color: rgb(165, 214, 255);&quot;&gt;}&lt;/span&gt;&lt;span style=&quot;color: rgb(165, 214, 255);&quot;&gt; seconds.`&lt;/span&gt;);&lt;/font&gt;&lt;/div&gt;&lt;/div&gt;" style="text;html=1;align=left;verticalAlign=middle;resizable=0;points=[];autosize=1;strokeColor=none;fillColor=none;fontSize=18;" parent="1" vertex="1">
                    <mxGeometry x="20" y="1485" width="530" height="270" as="geometry"/>
                </mxCell>
                <mxCell id="24" value="&lt;div style=&quot;color: rgb(201, 209, 217); background-color: rgb(13, 17, 23); font-family: Consolas, &amp;quot;Courier New&amp;quot;, monospace; line-height: 19px;&quot;&gt;&lt;div style=&quot;&quot;&gt;&lt;font style=&quot;font-size: 18px;&quot;&gt;&lt;span style=&quot;color: rgb(236, 142, 44);&quot;&gt;function&lt;/span&gt; &lt;span style=&quot;color: rgb(210, 168, 255);&quot;&gt;add2_timing&lt;/span&gt;(&lt;span style=&quot;color: rgb(253, 172, 84);&quot;&gt;n&lt;/span&gt;){&lt;/font&gt;&lt;/div&gt;&lt;div style=&quot;&quot;&gt;&lt;font size=&quot;3&quot;&gt;&amp;nbsp; &lt;span style=&quot;color: #ec8e2c;&quot;&gt;return&lt;/span&gt; &lt;span style=&quot;color: #fdac54;&quot;&gt;n&lt;/span&gt; &lt;span style=&quot;color: #ec8e2c;&quot;&gt;*&lt;/span&gt; (&lt;span style=&quot;color: #fdac54;&quot;&gt;n&lt;/span&gt; &lt;span style=&quot;color: #ec8e2c;&quot;&gt;+&lt;/span&gt; &lt;span style=&quot;color: #79c0ff;&quot;&gt;1&lt;/span&gt;) &lt;span style=&quot;color: #ec8e2c;&quot;&gt;/&lt;/span&gt;&lt;span style=&quot;color: #79c0ff;&quot;&gt;2&lt;/span&gt;;&lt;/font&gt;&lt;/div&gt;&lt;div style=&quot;&quot;&gt;&lt;font size=&quot;3&quot;&gt;}&lt;/font&gt;&lt;/div&gt;&lt;font size=&quot;3&quot;&gt;&lt;br&gt;&lt;/font&gt;&lt;div style=&quot;&quot;&gt;&lt;font size=&quot;3&quot;&gt;&lt;span style=&quot;color: #ec8e2c;&quot;&gt;var&lt;/span&gt; time1 &lt;span style=&quot;color: #ec8e2c;&quot;&gt;=&lt;/span&gt; &lt;span style=&quot;color: #79c0ff;&quot;&gt;performance&lt;/span&gt;.&lt;span style=&quot;color: #d2a8ff;&quot;&gt;now&lt;/span&gt;();&lt;/font&gt;&lt;/div&gt;&lt;div style=&quot;&quot;&gt;&lt;font size=&quot;3&quot;&gt;&lt;span style=&quot;color: #d2a8ff;&quot;&gt;add1_timing&lt;/span&gt;(&lt;span style=&quot;color: #79c0ff;&quot;&gt;10000000000&lt;/span&gt;);&lt;/font&gt;&lt;/div&gt;&lt;div style=&quot;&quot;&gt;&lt;font size=&quot;3&quot;&gt;&lt;span style=&quot;color: #ec8e2c;&quot;&gt;var&lt;/span&gt; time2 &lt;span style=&quot;color: #ec8e2c;&quot;&gt;=&lt;/span&gt; &lt;span style=&quot;color: #79c0ff;&quot;&gt;performance&lt;/span&gt;.&lt;span style=&quot;color: #d2a8ff;&quot;&gt;now&lt;/span&gt;();&lt;/font&gt;&lt;/div&gt;&lt;div style=&quot;&quot;&gt;&lt;font size=&quot;3&quot;&gt;&lt;span style=&quot;color: rgb(121, 192, 255);&quot;&gt;console&lt;/span&gt;.&lt;span style=&quot;color: rgb(210, 168, 255);&quot;&gt;log&lt;/span&gt;(&lt;span style=&quot;color: rgb(165, 214, 255);&quot;&gt;`Time Elapsed: &lt;/span&gt;&lt;span style=&quot;color: rgb(165, 214, 255);&quot;&gt;${(&lt;/span&gt;time2&lt;span style=&quot;color: rgb(165, 214, 255);&quot;&gt; &lt;/span&gt;&lt;span style=&quot;color: rgb(236, 142, 44);&quot;&gt;-&lt;/span&gt;&lt;span style=&quot;color: rgb(165, 214, 255);&quot;&gt; &lt;/span&gt;time1&lt;span style=&quot;color: rgb(165, 214, 255);&quot;&gt;) &lt;/span&gt;&lt;span style=&quot;color: rgb(236, 142, 44);&quot;&gt;/&lt;/span&gt;&lt;span style=&quot;color: rgb(165, 214, 255);&quot;&gt; &lt;/span&gt;&lt;span style=&quot;color: rgb(121, 192, 255);&quot;&gt;1000&lt;/span&gt;&lt;span style=&quot;color: rgb(165, 214, 255);&quot;&gt;}&lt;/span&gt;&lt;span style=&quot;color: rgb(165, 214, 255);&quot;&gt; seconds.`&lt;/span&gt;);&lt;/font&gt;&lt;/div&gt;&lt;/div&gt;" style="text;html=1;align=left;verticalAlign=middle;resizable=0;points=[];autosize=1;strokeColor=none;fillColor=none;fontSize=18;" parent="1" vertex="1">
                    <mxGeometry x="20" y="1800" width="590" height="170" as="geometry"/>
                </mxCell>
                <mxCell id="25" value="&lt;font style=&quot;font-size: 18px;&quot;&gt;&lt;b&gt;The problem with Time&lt;/b&gt;&lt;/font&gt;" style="text;html=1;align=center;verticalAlign=middle;resizable=0;points=[];autosize=1;strokeColor=none;fillColor=none;" parent="1" vertex="1">
                    <mxGeometry x="260" y="2010" width="220" height="40" as="geometry"/>
                </mxCell>
                <mxCell id="26" value="--&amp;gt; Different machines will record different times&lt;br&gt;--&amp;gt; The same machine will record different times!&lt;br&gt;--&amp;gt; For fast algorithms, speed measurements may not be precise enough?" style="text;html=1;align=left;verticalAlign=middle;resizable=0;points=[];autosize=1;strokeColor=none;fillColor=none;fontSize=18;" parent="1" vertex="1">
                    <mxGeometry x="15" y="2050" width="620" height="80" as="geometry"/>
                </mxCell>
                <mxCell id="27" value="&lt;b&gt;If not time, then what?&lt;/b&gt;" style="text;html=1;align=center;verticalAlign=middle;resizable=0;points=[];autosize=1;strokeColor=none;fillColor=none;fontSize=18;" parent="1" vertex="1">
                    <mxGeometry x="290" y="2220" width="210" height="40" as="geometry"/>
                </mxCell>
                <mxCell id="28" value="Rather than counting secnds,&amp;nbsp;&lt;br&gt;Which are so variable...&lt;br&gt;&lt;br&gt;Let's count the number of&amp;nbsp;&lt;br&gt;simple operations the&amp;nbsp;&lt;br&gt;computer has to perform!" style="text;html=1;align=center;verticalAlign=middle;resizable=0;points=[];autosize=1;strokeColor=none;fillColor=none;fontSize=18;" parent="1" vertex="1">
                    <mxGeometry x="260" y="2270" width="260" height="140" as="geometry"/>
                </mxCell>
                <mxCell id="29" value="&lt;b&gt;Countng Operations&lt;/b&gt;" style="text;html=1;align=center;verticalAlign=middle;resizable=0;points=[];autosize=1;strokeColor=none;fillColor=none;fontSize=18;" parent="1" vertex="1">
                    <mxGeometry x="220" y="2450" width="200" height="40" as="geometry"/>
                </mxCell>
                <mxCell id="30" value="&lt;div style=&quot;color: rgb(201, 209, 217); background-color: rgb(13, 17, 23); font-family: Consolas, &amp;quot;Courier New&amp;quot;, monospace; line-height: 19px;&quot;&gt;&lt;div style=&quot;&quot;&gt;&lt;span style=&quot;color: rgb(139, 148, 158);&quot;&gt;&lt;font style=&quot;font-size: 18px;&quot;&gt;// method 2&lt;/font&gt;&lt;/span&gt;&lt;/div&gt;&lt;div style=&quot;&quot;&gt;&lt;font size=&quot;3&quot;&gt;&lt;span style=&quot;color: #ec8e2c;&quot;&gt;function&lt;/span&gt; &lt;span style=&quot;color: #d2a8ff;&quot;&gt;addUpTo_2&lt;/span&gt;(&lt;span style=&quot;color: #fdac54;&quot;&gt;n&lt;/span&gt;){&lt;/font&gt;&lt;/div&gt;&lt;div style=&quot;&quot;&gt;&lt;font size=&quot;3&quot;&gt;&amp;nbsp; &lt;span style=&quot;color: #ec8e2c;&quot;&gt;return&lt;/span&gt; &lt;span style=&quot;color: #fdac54;&quot;&gt;n&lt;/span&gt; &lt;span style=&quot;color: #ec8e2c;&quot;&gt;*&lt;/span&gt; (&lt;span style=&quot;color: #fdac54;&quot;&gt;n&lt;/span&gt; &lt;span style=&quot;color: #ec8e2c;&quot;&gt;+&lt;/span&gt; &lt;span style=&quot;color: #79c0ff;&quot;&gt;1&lt;/span&gt;) &lt;span style=&quot;color: #ec8e2c;&quot;&gt;/&lt;/span&gt; &lt;span style=&quot;color: #79c0ff;&quot;&gt;2&lt;/span&gt;;&lt;/font&gt;&lt;/div&gt;&lt;div style=&quot;&quot;&gt;&lt;font size=&quot;3&quot;&gt;}&lt;/font&gt;&lt;/div&gt;&lt;font size=&quot;3&quot;&gt;&lt;br&gt;&lt;/font&gt;&lt;div style=&quot;&quot;&gt;&lt;font size=&quot;3&quot;&gt;&lt;span style=&quot;color: #79c0ff;&quot;&gt;console&lt;/span&gt;.&lt;span style=&quot;color: #d2a8ff;&quot;&gt;log&lt;/span&gt;(&lt;span style=&quot;color: #d2a8ff;&quot;&gt;addUpTo_2&lt;/span&gt;(&lt;span style=&quot;color: #79c0ff;&quot;&gt;6&lt;/span&gt;));&lt;/font&gt;&lt;/div&gt;&lt;br&gt;&lt;/div&gt;" style="text;html=1;align=left;verticalAlign=middle;resizable=0;points=[];autosize=1;strokeColor=none;fillColor=none;fontSize=18;" parent="1" vertex="1">
                    <mxGeometry x="220" y="2520" width="250" height="150" as="geometry"/>
                </mxCell>
                <mxCell id="31" value="* ==&amp;gt; 1 multiplication&lt;br&gt;+ ==&amp;gt; 1 addition&lt;br&gt;/ ==&amp;gt; 1 division" style="text;html=1;align=left;verticalAlign=middle;resizable=0;points=[];autosize=1;strokeColor=none;fillColor=none;fontSize=18;" parent="1" vertex="1">
                    <mxGeometry x="545" y="2530" width="190" height="80" as="geometry"/>
                </mxCell>
                <mxCell id="32" value="3 simple operations, regardless of the size of n" style="text;html=1;align=center;verticalAlign=middle;resizable=0;points=[];autosize=1;strokeColor=none;fillColor=none;fontSize=18;" parent="1" vertex="1">
                    <mxGeometry x="250" y="2710" width="400" height="40" as="geometry"/>
                </mxCell>
                <mxCell id="35" value="&lt;div style=&quot;color: rgb(201, 209, 217); background-color: rgb(13, 17, 23); font-family: Consolas, &amp;quot;Courier New&amp;quot;, monospace; line-height: 19px;&quot;&gt;&lt;div style=&quot;&quot;&gt;&lt;span style=&quot;color: rgb(139, 148, 158);&quot;&gt;&lt;font style=&quot;font-size: 18px;&quot;&gt;// method 1&lt;/font&gt;&lt;/span&gt;&lt;/div&gt;&lt;div style=&quot;&quot;&gt;&lt;font size=&quot;3&quot;&gt;&lt;span style=&quot;color: #ec8e2c;&quot;&gt;function&lt;/span&gt; &lt;span style=&quot;color: #d2a8ff;&quot;&gt;addUpTo_1&lt;/span&gt;(&lt;span style=&quot;color: #fdac54;&quot;&gt;n&lt;/span&gt;){&lt;/font&gt;&lt;/div&gt;&lt;div style=&quot;&quot;&gt;&lt;font size=&quot;3&quot;&gt;&amp;nbsp; &lt;span style=&quot;color: #ec8e2c;&quot;&gt;let&lt;/span&gt; total &lt;span style=&quot;color: #ec8e2c;&quot;&gt;=&lt;/span&gt; &lt;span style=&quot;color: #79c0ff;&quot;&gt;0&lt;/span&gt;;&lt;/font&gt;&lt;/div&gt;&lt;div style=&quot;&quot;&gt;&lt;font size=&quot;3&quot;&gt;&amp;nbsp; &lt;span style=&quot;color: #ec8e2c;&quot;&gt;for&lt;/span&gt;(&lt;span style=&quot;color: #ec8e2c;&quot;&gt;let&lt;/span&gt; i &lt;span style=&quot;color: #ec8e2c;&quot;&gt;=&lt;/span&gt; &lt;span style=&quot;color: #79c0ff;&quot;&gt;1&lt;/span&gt;; i &lt;span style=&quot;color: #ec8e2c;&quot;&gt;&amp;lt;=&lt;/span&gt; &lt;span style=&quot;color: #fdac54;&quot;&gt;n&lt;/span&gt;; i&lt;span style=&quot;color: #ec8e2c;&quot;&gt;++&lt;/span&gt;){&lt;/font&gt;&lt;/div&gt;&lt;div style=&quot;&quot;&gt;&lt;font size=&quot;3&quot;&gt;&amp;nbsp; &amp;nbsp; total &lt;span style=&quot;color: #ec8e2c;&quot;&gt;+=&lt;/span&gt; i;&lt;/font&gt;&lt;/div&gt;&lt;div style=&quot;&quot;&gt;&lt;font size=&quot;3&quot;&gt;&amp;nbsp; }&lt;/font&gt;&lt;/div&gt;&lt;div style=&quot;&quot;&gt;&lt;font size=&quot;3&quot;&gt;&amp;nbsp; &lt;span style=&quot;color: #ec8e2c;&quot;&gt;return&lt;/span&gt; total;&lt;/font&gt;&lt;/div&gt;&lt;div style=&quot;&quot;&gt;&lt;font size=&quot;3&quot;&gt;}&lt;/font&gt;&lt;/div&gt;&lt;font size=&quot;3&quot;&gt;&lt;br&gt;&lt;/font&gt;&lt;div style=&quot;&quot;&gt;&lt;font size=&quot;3&quot;&gt;&lt;span style=&quot;color: rgb(121, 192, 255);&quot;&gt;console&lt;/span&gt;.&lt;span style=&quot;color: rgb(210, 168, 255);&quot;&gt;log&lt;/span&gt;(&lt;span style=&quot;color: rgb(210, 168, 255);&quot;&gt;addUpTo_1&lt;/span&gt;(&lt;span style=&quot;color: rgb(121, 192, 255);&quot;&gt;6&lt;/span&gt;));&lt;/font&gt;&lt;/div&gt;&lt;/div&gt;" style="text;html=1;align=left;verticalAlign=middle;resizable=0;points=[];autosize=1;strokeColor=none;fillColor=none;fontSize=18;" parent="1" vertex="1">
                    <mxGeometry x="30" y="2830" width="290" height="210" as="geometry"/>
                </mxCell>
                <mxCell id="36" value="&lt;b&gt;Countng Operations&lt;/b&gt;" style="text;html=1;align=center;verticalAlign=middle;resizable=0;points=[];autosize=1;strokeColor=none;fillColor=none;fontSize=18;" parent="1" vertex="1">
                    <mxGeometry x="185" y="2780" width="200" height="40" as="geometry"/>
                </mxCell>
                <mxCell id="39" style="edgeStyle=orthogonalEdgeStyle;html=1;fontSize=18;entryX=0.517;entryY=0.286;entryDx=0;entryDy=0;entryPerimeter=0;" parent="1" source="37" target="35" edge="1">
                    <mxGeometry relative="1" as="geometry">
                        <mxPoint x="350" y="2860" as="targetPoint"/>
                    </mxGeometry>
                </mxCell>
                <mxCell id="37" value="1 assignment" style="text;html=1;align=center;verticalAlign=middle;resizable=0;points=[];autosize=1;strokeColor=none;fillColor=none;fontSize=18;" parent="1" vertex="1">
                    <mxGeometry x="425" y="2830" width="130" height="40" as="geometry"/>
                </mxCell>
                <mxCell id="41" style="edgeStyle=orthogonalEdgeStyle;html=1;entryX=0.379;entryY=0.381;entryDx=0;entryDy=0;entryPerimeter=0;fontSize=18;" parent="1" source="40" target="35" edge="1">
                    <mxGeometry relative="1" as="geometry">
                        <Array as="points">
                            <mxPoint x="418" y="2880"/>
                            <mxPoint x="418" y="2930"/>
                            <mxPoint x="140" y="2930"/>
                        </Array>
                    </mxGeometry>
                </mxCell>
                <mxCell id="40" value="1 assignment" style="text;html=1;align=center;verticalAlign=middle;resizable=0;points=[];autosize=1;strokeColor=none;fillColor=none;fontSize=18;" parent="1" vertex="1">
                    <mxGeometry x="515" y="2860" width="130" height="40" as="geometry"/>
                </mxCell>
                <mxCell id="43" style="edgeStyle=orthogonalEdgeStyle;html=1;fontSize=18;entryX=0.621;entryY=0.381;entryDx=0;entryDy=0;entryPerimeter=0;" parent="1" source="42" target="35" edge="1">
                    <mxGeometry relative="1" as="geometry">
                        <Array as="points">
                            <mxPoint x="382" y="2930"/>
                            <mxPoint x="382" y="2950"/>
                            <mxPoint x="210" y="2950"/>
                        </Array>
                    </mxGeometry>
                </mxCell>
                <mxCell id="42" value="n comparisons ????" style="text;html=1;align=center;verticalAlign=middle;resizable=0;points=[];autosize=1;strokeColor=none;fillColor=none;fontSize=18;" parent="1" vertex="1">
                    <mxGeometry x="445" y="2910" width="190" height="40" as="geometry"/>
                </mxCell>
                <mxCell id="45" style="edgeStyle=orthogonalEdgeStyle;html=1;fontSize=18;" parent="1" source="44" edge="1">
                    <mxGeometry relative="1" as="geometry">
                        <mxPoint x="270" y="2930" as="targetPoint"/>
                    </mxGeometry>
                </mxCell>
                <mxCell id="44" value="n additions and&lt;br&gt;n assignments" style="text;html=1;align=center;verticalAlign=middle;resizable=0;points=[];autosize=1;strokeColor=none;fillColor=none;fontSize=18;" parent="1" vertex="1">
                    <mxGeometry x="480" y="2950" width="150" height="60" as="geometry"/>
                </mxCell>
                <mxCell id="49" style="edgeStyle=orthogonalEdgeStyle;html=1;entryX=0.345;entryY=0.524;entryDx=0;entryDy=0;entryPerimeter=0;fontSize=18;" parent="1" source="46" target="35" edge="1">
                    <mxGeometry relative="1" as="geometry"/>
                </mxCell>
                <mxCell id="46" value="n additions" style="text;html=1;align=center;verticalAlign=middle;resizable=0;points=[];autosize=1;strokeColor=none;fillColor=none;fontSize=18;" parent="1" vertex="1">
                    <mxGeometry x="5" y="3090" width="110" height="40" as="geometry"/>
                </mxCell>
                <mxCell id="48" style="edgeStyle=orthogonalEdgeStyle;html=1;fontSize=18;" parent="1" source="47" edge="1">
                    <mxGeometry relative="1" as="geometry">
                        <mxPoint x="140" y="2930" as="targetPoint"/>
                    </mxGeometry>
                </mxCell>
                <mxCell id="47" value="n assignments" style="text;html=1;align=center;verticalAlign=middle;resizable=0;points=[];autosize=1;strokeColor=none;fillColor=none;fontSize=18;" parent="1" vertex="1">
                    <mxGeometry x="150" y="3110" width="140" height="40" as="geometry"/>
                </mxCell>
                <mxCell id="50" value="&lt;b&gt;Introducing ... Big O&lt;/b&gt;" style="text;html=1;align=center;verticalAlign=middle;resizable=0;points=[];autosize=1;strokeColor=none;fillColor=none;fontSize=18;" parent="1" vertex="1">
                    <mxGeometry x="380" y="3330" width="200" height="40" as="geometry"/>
                </mxCell>
                <mxCell id="51" value="Big O Notatin is a way to formalize fuzzy counting&lt;br&gt;&lt;br&gt;It allows us to talk formally about how the reutime of an algorithm&lt;br&gt;grows as the inputs&amp;nbsp; grow&lt;br&gt;&lt;br&gt;We won't care about the details,&amp;nbsp;&lt;br&gt;only the trends" style="text;html=1;align=center;verticalAlign=middle;resizable=0;points=[];autosize=1;strokeColor=none;fillColor=none;fontSize=18;" parent="1" vertex="1">
                    <mxGeometry x="210" y="3410" width="540" height="160" as="geometry"/>
                </mxCell>
                <mxCell id="52" value="&lt;b&gt;Big O Definition&lt;/b&gt;" style="text;html=1;align=center;verticalAlign=middle;resizable=0;points=[];autosize=1;strokeColor=none;fillColor=none;fontSize=18;" parent="1" vertex="1">
                    <mxGeometry x="410" y="3620" width="160" height="40" as="geometry"/>
                </mxCell>
                <mxCell id="53" value="We say that an&amp;nbsp; algorithm is &lt;b&gt;O(f(n)) &lt;/b&gt;if the&amp;nbsp;&lt;br&gt;number of simple operations the&amp;nbsp;&lt;br&gt;computer has to do is eventually less than&amp;nbsp;&lt;br&gt;a constant times &lt;b&gt;f(n), &lt;/b&gt;as &lt;b&gt;n&lt;/b&gt;&amp;nbsp;increases" style="text;html=1;align=center;verticalAlign=middle;resizable=0;points=[];autosize=1;strokeColor=none;fillColor=none;fontSize=18;" parent="1" vertex="1">
                    <mxGeometry x="290" y="3660" width="360" height="100" as="geometry"/>
                </mxCell>
                <mxCell id="54" value="&lt;div style=&quot;text-align: left;&quot;&gt;&lt;span style=&quot;background-color: initial;&quot;&gt;--&amp;gt; f(n) could be linear (f(n) = n)&lt;/span&gt;&lt;/div&gt;&lt;div style=&quot;text-align: left;&quot;&gt;&lt;span style=&quot;background-color: initial;&quot;&gt;--&amp;gt; f(n) could be quadratic (f(n) = n^2)&lt;/span&gt;&lt;/div&gt;&lt;div style=&quot;text-align: left;&quot;&gt;&lt;span style=&quot;background-color: initial;&quot;&gt;--&amp;gt; f(n) could be constant (f(n) = 1)&lt;/span&gt;&lt;/div&gt;&lt;div style=&quot;text-align: left;&quot;&gt;&lt;span style=&quot;background-color: initial;&quot;&gt;--&amp;gt; f(n) could be something entirely different!&lt;/span&gt;&lt;/div&gt;" style="text;html=1;align=center;verticalAlign=middle;resizable=0;points=[];autosize=1;strokeColor=none;fillColor=none;fontSize=18;" parent="1" vertex="1">
                    <mxGeometry x="255" y="3770" width="380" height="100" as="geometry"/>
                </mxCell>
                <mxCell id="55" value="&lt;b&gt;&lt;u&gt;&lt;font style=&quot;font-size: 24px;&quot;&gt;Example&lt;/font&gt;&lt;/u&gt;&lt;/b&gt;" style="text;html=1;align=center;verticalAlign=middle;resizable=0;points=[];autosize=1;strokeColor=none;fillColor=none;fontSize=18;" parent="1" vertex="1">
                    <mxGeometry x="330" y="3950" width="120" height="40" as="geometry"/>
                </mxCell>
                <mxCell id="56" value="&lt;div style=&quot;color: rgb(201, 209, 217); background-color: rgb(13, 17, 23); font-family: Consolas, &amp;quot;Courier New&amp;quot;, monospace; line-height: 19px;&quot;&gt;&lt;div style=&quot;&quot;&gt;&lt;font style=&quot;font-size: 18px;&quot;&gt;&lt;span style=&quot;color: rgb(236, 142, 44);&quot;&gt;function&lt;/span&gt; &lt;span style=&quot;color: rgb(210, 168, 255);&quot;&gt;addUpTo_2&lt;/span&gt;(&lt;span style=&quot;color: rgb(253, 172, 84);&quot;&gt;n&lt;/span&gt;){&lt;/font&gt;&lt;/div&gt;&lt;div style=&quot;&quot;&gt;&lt;font size=&quot;3&quot;&gt;&amp;nbsp; &lt;span style=&quot;color: #ec8e2c;&quot;&gt;return&lt;/span&gt; &lt;span style=&quot;color: #fdac54;&quot;&gt;n&lt;/span&gt; &lt;span style=&quot;color: #ec8e2c;&quot;&gt;*&lt;/span&gt; (&lt;span style=&quot;color: #fdac54;&quot;&gt;n&lt;/span&gt; &lt;span style=&quot;color: #ec8e2c;&quot;&gt;+&lt;/span&gt; &lt;span style=&quot;color: #79c0ff;&quot;&gt;1&lt;/span&gt;) &lt;span style=&quot;color: #ec8e2c;&quot;&gt;/&lt;/span&gt; &lt;span style=&quot;color: #79c0ff;&quot;&gt;2&lt;/span&gt;;&lt;/font&gt;&lt;/div&gt;&lt;div style=&quot;&quot;&gt;&lt;font size=&quot;3&quot;&gt;}&lt;/font&gt;&lt;/div&gt;&lt;/div&gt;" style="text;html=1;align=left;verticalAlign=middle;resizable=0;points=[];autosize=1;strokeColor=none;fillColor=none;fontSize=18;" parent="1" vertex="1">
                    <mxGeometry x="90" y="4020" width="240" height="70" as="geometry"/>
                </mxCell>
                <mxCell id="57" value="Always 3 operations&lt;br&gt;&lt;b&gt;O(1)&lt;/b&gt;" style="text;html=1;align=center;verticalAlign=middle;resizable=0;points=[];autosize=1;strokeColor=none;fillColor=none;fontSize=18;" parent="1" vertex="1">
                    <mxGeometry x="430" y="4030" width="180" height="60" as="geometry"/>
                </mxCell>
                <mxCell id="58" value="&lt;div style=&quot;color: rgb(201, 209, 217); background-color: rgb(13, 17, 23); font-family: Consolas, &amp;quot;Courier New&amp;quot;, monospace; line-height: 19px;&quot;&gt;&lt;div style=&quot;&quot;&gt;&lt;font style=&quot;font-size: 18px;&quot;&gt;&lt;span style=&quot;color: rgb(236, 142, 44);&quot;&gt;function&lt;/span&gt; &lt;span style=&quot;color: rgb(210, 168, 255);&quot;&gt;add1_timing&lt;/span&gt;(&lt;span style=&quot;color: rgb(253, 172, 84);&quot;&gt;n&lt;/span&gt;){&lt;/font&gt;&lt;/div&gt;&lt;div style=&quot;&quot;&gt;&lt;font size=&quot;3&quot;&gt;&amp;nbsp; &lt;span style=&quot;color: #ec8e2c;&quot;&gt;let&lt;/span&gt; total &lt;span style=&quot;color: #ec8e2c;&quot;&gt;=&lt;/span&gt; &lt;span style=&quot;color: #79c0ff;&quot;&gt;0&lt;/span&gt;;&lt;/font&gt;&lt;/div&gt;&lt;div style=&quot;&quot;&gt;&lt;font size=&quot;3&quot;&gt;&amp;nbsp; &lt;span style=&quot;color: #ec8e2c;&quot;&gt;for&lt;/span&gt;(&lt;span style=&quot;color: #ec8e2c;&quot;&gt;let&lt;/span&gt; i &lt;span style=&quot;color: #ec8e2c;&quot;&gt;=&lt;/span&gt; &lt;span style=&quot;color: #79c0ff;&quot;&gt;1&lt;/span&gt;; i &lt;span style=&quot;color: #ec8e2c;&quot;&gt;&amp;lt;=&lt;/span&gt; &lt;span style=&quot;color: #fdac54;&quot;&gt;n&lt;/span&gt;; i&lt;span style=&quot;color: #ec8e2c;&quot;&gt;++&lt;/span&gt;){&lt;/font&gt;&lt;/div&gt;&lt;div style=&quot;&quot;&gt;&lt;font size=&quot;3&quot;&gt;&amp;nbsp; &amp;nbsp; total &lt;span style=&quot;color: #ec8e2c;&quot;&gt;+=&lt;/span&gt; &lt;span style=&quot;color: #79c0ff;&quot;&gt;1&lt;/span&gt;;&lt;/font&gt;&lt;/div&gt;&lt;div style=&quot;&quot;&gt;&lt;font size=&quot;3&quot;&gt;&amp;nbsp; }&lt;/font&gt;&lt;/div&gt;&lt;div style=&quot;&quot;&gt;&lt;font size=&quot;3&quot;&gt;&amp;nbsp; &lt;span style=&quot;color: #ec8e2c;&quot;&gt;return&lt;/span&gt; total;&lt;/font&gt;&lt;/div&gt;&lt;div style=&quot;&quot;&gt;&lt;font size=&quot;3&quot;&gt;}&lt;/font&gt;&lt;/div&gt;&lt;/div&gt;" style="text;html=1;align=left;verticalAlign=middle;resizable=0;points=[];autosize=1;strokeColor=none;fillColor=none;fontSize=24;" parent="1" vertex="1">
                    <mxGeometry x="90" y="4150" width="290" height="160" as="geometry"/>
                </mxCell>
                <mxCell id="59" value="Number of operations is (eventually)&lt;br&gt;bounded by a multiple of n (say, 10n)&lt;br&gt;&lt;br&gt;&lt;b&gt;O(n)&lt;/b&gt;" style="text;html=1;align=center;verticalAlign=middle;resizable=0;points=[];autosize=1;strokeColor=none;fillColor=none;fontSize=18;" parent="1" vertex="1">
                    <mxGeometry x="375" y="4180" width="320" height="100" as="geometry"/>
                </mxCell>
                <mxCell id="60" value="&lt;div style=&quot;color: rgb(201, 209, 217); background-color: rgb(13, 17, 23); font-family: Consolas, &amp;quot;Courier New&amp;quot;, monospace; line-height: 19px;&quot;&gt;&lt;div style=&quot;&quot;&gt;&lt;font style=&quot;font-size: 18px;&quot;&gt;&lt;span style=&quot;color: rgb(236, 142, 44);&quot;&gt;function&lt;/span&gt; &lt;span style=&quot;color: rgb(210, 168, 255);&quot;&gt;countUpAndDown&lt;/span&gt;(&lt;span style=&quot;color: rgb(253, 172, 84);&quot;&gt;n&lt;/span&gt;){&lt;/font&gt;&lt;/div&gt;&lt;div style=&quot;&quot;&gt;&lt;font size=&quot;3&quot;&gt;&amp;nbsp; &lt;span style=&quot;color: #79c0ff;&quot;&gt;console&lt;/span&gt;.&lt;span style=&quot;color: #d2a8ff;&quot;&gt;log&lt;/span&gt;(&lt;span style=&quot;color: #a5d6ff;&quot;&gt;&quot;Going up!&quot;&lt;/span&gt;);&lt;/font&gt;&lt;/div&gt;&lt;div style=&quot;&quot;&gt;&lt;font size=&quot;3&quot;&gt;&amp;nbsp; &lt;span style=&quot;color: #ec8e2c;&quot;&gt;for&lt;/span&gt;(&lt;span style=&quot;color: #ec8e2c;&quot;&gt;let&lt;/span&gt; i &lt;span style=&quot;color: #ec8e2c;&quot;&gt;=&lt;/span&gt; &lt;span style=&quot;color: #79c0ff;&quot;&gt;0&lt;/span&gt;; i &lt;span style=&quot;color: #ec8e2c;&quot;&gt;&amp;lt;=&lt;/span&gt; &lt;span style=&quot;color: #fdac54;&quot;&gt;n&lt;/span&gt;; i&lt;span style=&quot;color: #ec8e2c;&quot;&gt;++&lt;/span&gt;){&lt;/font&gt;&lt;/div&gt;&lt;div style=&quot;&quot;&gt;&lt;font size=&quot;3&quot;&gt;&amp;nbsp; &amp;nbsp; &lt;span style=&quot;color: #79c0ff;&quot;&gt;console&lt;/span&gt;.&lt;span style=&quot;color: #d2a8ff;&quot;&gt;log&lt;/span&gt;(i);&lt;/font&gt;&lt;/div&gt;&lt;div style=&quot;&quot;&gt;&lt;font size=&quot;3&quot;&gt;&amp;nbsp; }&lt;/font&gt;&lt;/div&gt;&lt;font size=&quot;3&quot;&gt;&lt;br&gt;&lt;/font&gt;&lt;div style=&quot;&quot;&gt;&lt;font size=&quot;3&quot;&gt;&amp;nbsp; &lt;span style=&quot;color: #79c0ff;&quot;&gt;console&lt;/span&gt;.&lt;span style=&quot;color: #d2a8ff;&quot;&gt;log&lt;/span&gt;(&lt;span style=&quot;color: #a5d6ff;&quot;&gt;&quot;At the top! &lt;/span&gt;&lt;span style=&quot;color: #ec8e2c;&quot;&gt;\n&lt;/span&gt;&lt;span style=&quot;color: #a5d6ff;&quot;&gt; Going down...&quot;&lt;/span&gt;);&lt;/font&gt;&lt;/div&gt;&lt;div style=&quot;&quot;&gt;&lt;font size=&quot;3&quot;&gt;&amp;nbsp; &lt;span style=&quot;color: #ec8e2c;&quot;&gt;for&lt;/span&gt;(&lt;span style=&quot;color: #ec8e2c;&quot;&gt;let&lt;/span&gt; j &lt;span style=&quot;color: #ec8e2c;&quot;&gt;=&lt;/span&gt; &lt;span style=&quot;color: #fdac54;&quot;&gt;n&lt;/span&gt;&lt;span style=&quot;color: #ec8e2c;&quot;&gt;-&lt;/span&gt;&lt;span style=&quot;color: #79c0ff;&quot;&gt;1&lt;/span&gt;; j &lt;span style=&quot;color: #ec8e2c;&quot;&gt;&amp;gt;=&lt;/span&gt; &lt;span style=&quot;color: #79c0ff;&quot;&gt;0&lt;/span&gt;; j&lt;span style=&quot;color: #ec8e2c;&quot;&gt;--&lt;/span&gt;){&lt;/font&gt;&lt;/div&gt;&lt;div style=&quot;&quot;&gt;&lt;font size=&quot;3&quot;&gt;&amp;nbsp; &amp;nbsp; &lt;span style=&quot;color: #79c0ff;&quot;&gt;console&lt;/span&gt;.&lt;span style=&quot;color: #d2a8ff;&quot;&gt;log&lt;/span&gt;(j);&lt;/font&gt;&lt;/div&gt;&lt;div style=&quot;&quot;&gt;&lt;font size=&quot;3&quot;&gt;&amp;nbsp; }&lt;/font&gt;&lt;/div&gt;&lt;div style=&quot;&quot;&gt;&lt;font size=&quot;3&quot;&gt;&amp;nbsp; &lt;span style=&quot;color: #79c0ff;&quot;&gt;console&lt;/span&gt;.&lt;span style=&quot;color: #d2a8ff;&quot;&gt;log&lt;/span&gt;(&lt;span style=&quot;color: #a5d6ff;&quot;&gt;&quot;Back down. Bye!&quot;&lt;/span&gt;);&lt;/font&gt;&lt;/div&gt;&lt;div style=&quot;&quot;&gt;&lt;font size=&quot;3&quot;&gt;}&lt;/font&gt;&lt;/div&gt;&lt;font size=&quot;3&quot;&gt;&lt;br&gt;&lt;/font&gt;&lt;div style=&quot;&quot;&gt;&lt;font size=&quot;3&quot;&gt;&lt;span style=&quot;color: rgb(210, 168, 255);&quot;&gt;countUpAndDown&lt;/span&gt;(&lt;span style=&quot;color: rgb(121, 192, 255);&quot;&gt;10&lt;/span&gt;);&lt;/font&gt;&lt;/div&gt;&lt;/div&gt;" style="text;html=1;align=left;verticalAlign=middle;resizable=0;points=[];autosize=1;strokeColor=none;fillColor=none;fontSize=18;" parent="1" vertex="1">
                    <mxGeometry x="80" y="4435" width="430" height="290" as="geometry"/>
                </mxCell>
                <mxCell id="61" value="" style="rounded=0;whiteSpace=wrap;html=1;fontSize=18;shadow=1;fillColor=none;" parent="1" vertex="1">
                    <mxGeometry x="80" y="4480" width="300" height="70" as="geometry"/>
                </mxCell>
                <mxCell id="62" value="" style="rounded=0;whiteSpace=wrap;html=1;fontSize=18;shadow=1;fillColor=none;" parent="1" vertex="1">
                    <mxGeometry x="90" y="4580" width="300" height="60" as="geometry"/>
                </mxCell>
                <mxCell id="63" value="Number of operations is&amp;nbsp;&lt;br&gt;(eventually) bounded by a&amp;nbsp;&lt;br&gt;multiple of n (say, 10n)&lt;br&gt;&lt;br&gt;&lt;br&gt;&lt;b&gt;O(n)&lt;/b&gt;" style="text;html=1;align=center;verticalAlign=middle;resizable=0;points=[];autosize=1;strokeColor=none;fillColor=none;fontSize=18;" parent="1" vertex="1">
                    <mxGeometry x="515" y="4500" width="240" height="140" as="geometry"/>
                </mxCell>
                <mxCell id="67" value="" style="edgeStyle=orthogonalEdgeStyle;html=1;fontSize=18;" parent="1" source="64" target="61" edge="1">
                    <mxGeometry relative="1" as="geometry"/>
                </mxCell>
                <mxCell id="64" value="&lt;b&gt;O(n)&lt;/b&gt;" style="text;html=1;align=center;verticalAlign=middle;resizable=0;points=[];autosize=1;strokeColor=none;fillColor=none;fontSize=18;" parent="1" vertex="1">
                    <mxGeometry y="4490" width="60" height="40" as="geometry"/>
                </mxCell>
                <mxCell id="66" value="" style="edgeStyle=orthogonalEdgeStyle;html=1;fontSize=18;" parent="1" source="65" target="62" edge="1">
                    <mxGeometry relative="1" as="geometry"/>
                </mxCell>
                <mxCell id="65" value="&lt;b&gt;O(n)&lt;/b&gt;" style="text;html=1;align=center;verticalAlign=middle;resizable=0;points=[];autosize=1;strokeColor=none;fillColor=none;fontSize=18;" parent="1" vertex="1">
                    <mxGeometry y="4590" width="60" height="40" as="geometry"/>
                </mxCell>
                <mxCell id="68" value="&lt;div style=&quot;color: rgb(201, 209, 217); background-color: rgb(13, 17, 23); font-family: Consolas, &amp;quot;Courier New&amp;quot;, monospace; line-height: 19px;&quot;&gt;&lt;div style=&quot;&quot;&gt;&lt;font style=&quot;font-size: 18px;&quot;&gt;&lt;span style=&quot;color: rgb(236, 142, 44);&quot;&gt;function&lt;/span&gt; &lt;span style=&quot;color: rgb(210, 168, 255);&quot;&gt;printAllPairs&lt;/span&gt;(&lt;span style=&quot;color: rgb(253, 172, 84);&quot;&gt;n&lt;/span&gt;){&lt;/font&gt;&lt;/div&gt;&lt;div style=&quot;&quot;&gt;&lt;font size=&quot;3&quot;&gt;&amp;nbsp; &lt;span style=&quot;color: #ec8e2c;&quot;&gt;for&lt;/span&gt;(&lt;span style=&quot;color: #ec8e2c;&quot;&gt;var&lt;/span&gt; i &lt;span style=&quot;color: #ec8e2c;&quot;&gt;=&lt;/span&gt; &lt;span style=&quot;color: #79c0ff;&quot;&gt;0&lt;/span&gt;; i &lt;span style=&quot;color: #ec8e2c;&quot;&gt;&amp;lt;&lt;/span&gt; &lt;span style=&quot;color: #fdac54;&quot;&gt;n&lt;/span&gt;; i&lt;span style=&quot;color: #ec8e2c;&quot;&gt;++&lt;/span&gt;){&lt;/font&gt;&lt;/div&gt;&lt;div style=&quot;&quot;&gt;&lt;font size=&quot;3&quot;&gt;&amp;nbsp; &lt;/font&gt;&lt;/div&gt;&lt;div style=&quot;&quot;&gt;&lt;font size=&quot;3&quot;&gt;&amp;nbsp; &amp;nbsp; &lt;span style=&quot;color: #ec8e2c;&quot;&gt;for&lt;/span&gt; (&lt;span style=&quot;color: #ec8e2c;&quot;&gt;var&lt;/span&gt; j &lt;span style=&quot;color: #ec8e2c;&quot;&gt;=&lt;/span&gt; &lt;span style=&quot;color: #79c0ff;&quot;&gt;0&lt;/span&gt;; j &lt;span style=&quot;color: #ec8e2c;&quot;&gt;&amp;lt;&lt;/span&gt; &lt;span style=&quot;color: #fdac54;&quot;&gt;n&lt;/span&gt;; j&lt;span style=&quot;color: #ec8e2c;&quot;&gt;++&lt;/span&gt;){&lt;/font&gt;&lt;/div&gt;&lt;div style=&quot;&quot;&gt;&lt;font size=&quot;3&quot;&gt;&amp;nbsp; &amp;nbsp; &amp;nbsp; &lt;span style=&quot;color: #79c0ff;&quot;&gt;console&lt;/span&gt;.&lt;span style=&quot;color: #d2a8ff;&quot;&gt;log&lt;/span&gt;(i, j);&lt;/font&gt;&lt;/div&gt;&lt;div style=&quot;&quot;&gt;&lt;font size=&quot;3&quot;&gt;&amp;nbsp; &amp;nbsp; }&lt;/font&gt;&lt;/div&gt;&lt;div style=&quot;&quot;&gt;&lt;font size=&quot;3&quot;&gt;&amp;nbsp; &lt;/font&gt;&lt;/div&gt;&lt;div style=&quot;&quot;&gt;&lt;font size=&quot;3&quot;&gt;&amp;nbsp; }&lt;/font&gt;&lt;/div&gt;&lt;div style=&quot;&quot;&gt;&lt;font size=&quot;3&quot;&gt;}&lt;/font&gt;&lt;/div&gt;&lt;/div&gt;" style="text;html=1;align=left;verticalAlign=middle;resizable=0;points=[];autosize=1;strokeColor=none;fillColor=none;fontSize=18;" parent="1" vertex="1">
                    <mxGeometry x="85" y="4760" width="310" height="190" as="geometry"/>
                </mxCell>
                <mxCell id="69" value="" style="whiteSpace=wrap;html=1;shadow=1;fontSize=18;fillColor=#FF0000;" parent="1" vertex="1">
                    <mxGeometry x="105" y="4830" width="5" height="60" as="geometry"/>
                </mxCell>
                <mxCell id="70" value="" style="whiteSpace=wrap;html=1;shadow=1;fontSize=18;fillColor=#FF0000;" parent="1" vertex="1">
                    <mxGeometry x="80" y="4800" width="5" height="110" as="geometry"/>
                </mxCell>
                <mxCell id="74" value="" style="edgeStyle=orthogonalEdgeStyle;html=1;fontSize=18;" parent="1" source="71" edge="1">
                    <mxGeometry relative="1" as="geometry">
                        <mxPoint x="80" y="4860" as="targetPoint"/>
                    </mxGeometry>
                </mxCell>
                <mxCell id="71" value="&lt;b&gt;O(n)&lt;/b&gt;" style="text;html=1;align=center;verticalAlign=middle;resizable=0;points=[];autosize=1;strokeColor=none;fillColor=none;fontSize=18;" parent="1" vertex="1">
                    <mxGeometry y="4840" width="60" height="40" as="geometry"/>
                </mxCell>
                <mxCell id="73" style="edgeStyle=orthogonalEdgeStyle;html=1;entryX=0;entryY=1;entryDx=0;entryDy=0;fontSize=18;" parent="1" source="72" target="69" edge="1">
                    <mxGeometry relative="1" as="geometry"/>
                </mxCell>
                <mxCell id="72" value="&lt;b&gt;O(n)&lt;/b&gt;" style="text;html=1;align=center;verticalAlign=middle;resizable=0;points=[];autosize=1;strokeColor=none;fillColor=none;fontSize=18;" parent="1" vertex="1">
                    <mxGeometry x="15" y="4940" width="60" height="40" as="geometry"/>
                </mxCell>
                <mxCell id="75" value="O(n) operation inside of&amp;nbsp; an&amp;nbsp;&lt;br&gt;O(n) operation.&lt;br&gt;&lt;br&gt;&lt;b&gt;O(n^2)&lt;/b&gt;" style="text;html=1;align=center;verticalAlign=middle;resizable=0;points=[];autosize=1;strokeColor=none;fillColor=none;fontSize=18;" parent="1" vertex="1">
                    <mxGeometry x="390" y="4790" width="250" height="100" as="geometry"/>
                </mxCell>
                <mxCell id="76" value="&lt;b&gt;&lt;font style=&quot;font-size: 24px;&quot;&gt;Simplifiying Big O Expressions&lt;/font&gt;&lt;/b&gt;" style="text;html=1;align=center;verticalAlign=middle;resizable=0;points=[];autosize=1;strokeColor=none;fillColor=none;fontSize=18;" parent="1" vertex="1">
                    <mxGeometry x="260" y="5050" width="380" height="40" as="geometry"/>
                </mxCell>
                <mxCell id="77" value="When determining the time complexity of an&amp;nbsp;&lt;br&gt;algorithm, there are some helpful rule&lt;br&gt;of thumbs for big O expressions.&amp;nbsp;&lt;br&gt;&lt;br&gt;&lt;br&gt;These rules of thumb are consequences of&lt;br&gt;the definition of big O notation." style="text;html=1;align=center;verticalAlign=middle;resizable=0;points=[];autosize=1;strokeColor=none;fillColor=none;fontSize=24;" parent="1" vertex="1">
                    <mxGeometry x="200" y="5100" width="500" height="220" as="geometry"/>
                </mxCell>
                <mxCell id="78" value="&lt;b&gt;Constants Don't Matter&lt;/b&gt;" style="text;html=1;align=center;verticalAlign=middle;resizable=0;points=[];autosize=1;strokeColor=none;fillColor=none;fontSize=24;" parent="1" vertex="1">
                    <mxGeometry x="325" y="5520" width="290" height="40" as="geometry"/>
                </mxCell>
                <mxCell id="79" value="O(2n)&lt;span style=&quot;white-space: pre;&quot;&gt;&#9;&lt;/span&gt;&lt;span style=&quot;white-space: pre;&quot;&gt;&#9;&lt;/span&gt;&lt;span style=&quot;white-space: pre;&quot;&gt;&#9;&lt;/span&gt;==&amp;gt; O(n)&lt;br&gt;&lt;br&gt;O(500)&lt;span style=&quot;white-space: pre;&quot;&gt;&#9;&lt;/span&gt;&lt;span style=&quot;white-space: pre;&quot;&gt;&#9;&lt;/span&gt;&lt;span style=&quot;white-space: pre;&quot;&gt;&#9;&lt;/span&gt;==&amp;gt; O(1)&lt;br&gt;&lt;br&gt;O(12n^2)&lt;span style=&quot;white-space: pre;&quot;&gt;&#9;&lt;/span&gt;&lt;span style=&quot;white-space: pre;&quot;&gt;&#9;&lt;/span&gt;&lt;span style=&quot;white-space: pre;&quot;&gt;&#9;&lt;/span&gt;==&amp;gt; O(n^2)" style="text;html=1;align=center;verticalAlign=middle;resizable=0;points=[];autosize=1;strokeColor=none;fillColor=none;fontSize=24;" parent="1" vertex="1">
                    <mxGeometry x="280" y="5620" width="360" height="160" as="geometry"/>
                </mxCell>
                <mxCell id="80" value="Smaller Terms Don't Matter" style="text;html=1;align=center;verticalAlign=middle;resizable=0;points=[];autosize=1;strokeColor=none;fillColor=none;fontSize=24;" parent="1" vertex="1">
                    <mxGeometry x="280" y="5850" width="310" height="40" as="geometry"/>
                </mxCell>
                <mxCell id="81" value="O(n + 10)&amp;nbsp;&lt;span style=&quot;white-space: pre;&quot;&gt;&#9;&lt;/span&gt;==&amp;gt; O(n)&lt;br&gt;&lt;br&gt;O(1000n + 50)&amp;nbsp;&lt;span style=&quot;white-space: pre;&quot;&gt;&#9;&lt;/span&gt;==&amp;gt; O(n)&lt;br&gt;&lt;br&gt;O(n^2 + 5n + 8)&amp;nbsp;&lt;span style=&quot;white-space: pre;&quot;&gt;&#9;&lt;/span&gt;==&amp;gt; O(n^2)&lt;br&gt;" style="text;html=1;align=center;verticalAlign=middle;resizable=0;points=[];autosize=1;strokeColor=none;fillColor=none;fontSize=24;" parent="1" vertex="1">
                    <mxGeometry x="250" y="5920" width="360" height="160" as="geometry"/>
                </mxCell>
                <mxCell id="82" value="&lt;font style=&quot;font-size: 24px;&quot;&gt;&lt;b&gt;&lt;u&gt;Big O Shorthands&lt;/u&gt;&lt;/b&gt;&lt;/font&gt;" style="text;html=1;align=center;verticalAlign=middle;resizable=0;points=[];autosize=1;strokeColor=none;fillColor=none;" vertex="1" parent="1">
                    <mxGeometry x="165" y="6120" width="230" height="40" as="geometry"/>
                </mxCell>
                <mxCell id="83" value="--&amp;gt; Analyzing complexity with big O can get complicated.&lt;br&gt;--&amp;gt; There are several rules of thumb that can help&lt;br&gt;--&amp;gt; these rules won't ALWAYS work, but are a helpful starting point." style="text;html=1;align=left;verticalAlign=middle;resizable=0;points=[];autosize=1;strokeColor=none;fillColor=none;fontSize=24;" vertex="1" parent="1">
                    <mxGeometry x="90" y="6170" width="730" height="100" as="geometry"/>
                </mxCell>
                <mxCell id="84" value="1. arithmetic operations are constant&lt;br&gt;2. Variable assignment is constant&lt;br&gt;3. Accessing elements in an array (by&lt;br&gt;&amp;nbsp;index) or object (by key) is constant&lt;br&gt;4. In a loop, the complexity is the length of the loop times the complexity&amp;nbsp;&lt;br&gt;of whatever happens inside of the loop." style="text;html=1;align=left;verticalAlign=middle;resizable=0;points=[];autosize=1;strokeColor=none;fillColor=none;fontSize=24;" vertex="1" parent="1">
                    <mxGeometry x="75" y="6310" width="790" height="190" as="geometry"/>
                </mxCell>
                <mxCell id="85" value="A Couple More Examples" style="text;html=1;align=center;verticalAlign=middle;resizable=0;points=[];autosize=1;strokeColor=none;fillColor=none;fontSize=24;" vertex="1" parent="1">
                    <mxGeometry x="135" y="6620" width="290" height="40" as="geometry"/>
                </mxCell>
                <mxCell id="86" value="&lt;div style=&quot;color: rgb(201, 209, 217); background-color: rgb(13, 17, 23); font-family: Consolas, &amp;quot;Courier New&amp;quot;, monospace; font-size: 14px; line-height: 19px;&quot;&gt;&lt;div&gt;&lt;span style=&quot;color: #ec8e2c;&quot;&gt;function&lt;/span&gt; &lt;span style=&quot;color: #d2a8ff;&quot;&gt;logAtLeast5&lt;/span&gt;(&lt;span style=&quot;color: #fdac54;&quot;&gt;n&lt;/span&gt;){&lt;/div&gt;&lt;div&gt;&amp;nbsp; &lt;span style=&quot;color: #ec8e2c;&quot;&gt;for&lt;/span&gt; (&lt;span style=&quot;color: #ec8e2c;&quot;&gt;var&lt;/span&gt; i &lt;span style=&quot;color: #ec8e2c;&quot;&gt;=&lt;/span&gt; &lt;span style=&quot;color: #79c0ff;&quot;&gt;1&lt;/span&gt;; i &lt;span style=&quot;color: #ec8e2c;&quot;&gt;&amp;lt;=&lt;/span&gt; &lt;span style=&quot;color: #79c0ff;&quot;&gt;Math&lt;/span&gt;.&lt;span style=&quot;color: #d2a8ff;&quot;&gt;max&lt;/span&gt;(&lt;span style=&quot;color: #79c0ff;&quot;&gt;5&lt;/span&gt;, &lt;span style=&quot;color: #fdac54;&quot;&gt;n&lt;/span&gt;); i&lt;span style=&quot;color: #ec8e2c;&quot;&gt;++&lt;/span&gt;){&lt;/div&gt;&lt;div&gt;&amp;nbsp; &amp;nbsp; &lt;span style=&quot;color: #79c0ff;&quot;&gt;console&lt;/span&gt;.&lt;span style=&quot;color: #d2a8ff;&quot;&gt;log&lt;/span&gt;(i);&lt;/div&gt;&lt;div&gt;&amp;nbsp; }&lt;/div&gt;&lt;div&gt;}&lt;/div&gt;&lt;/div&gt;" style="text;html=1;align=left;verticalAlign=middle;resizable=0;points=[];autosize=1;strokeColor=none;fillColor=none;fontSize=24;" vertex="1" parent="1">
                    <mxGeometry x="40" y="6690" width="360" height="110" as="geometry"/>
                </mxCell>
                <mxCell id="87" value="O(n)" style="text;html=1;align=center;verticalAlign=middle;resizable=0;points=[];autosize=1;strokeColor=none;fillColor=none;fontSize=24;" vertex="1" parent="1">
                    <mxGeometry x="465" y="6710" width="70" height="40" as="geometry"/>
                </mxCell>
                <mxCell id="88" value="&lt;div style=&quot;color: rgb(201, 209, 217); background-color: rgb(13, 17, 23); font-family: Consolas, &amp;quot;Courier New&amp;quot;, monospace; font-size: 14px; line-height: 19px;&quot;&gt;&lt;div&gt;&lt;span style=&quot;color: #ec8e2c;&quot;&gt;function&lt;/span&gt; &lt;span style=&quot;color: #d2a8ff;&quot;&gt;logAtMost5&lt;/span&gt;(&lt;span style=&quot;color: #fdac54;&quot;&gt;n&lt;/span&gt;){&lt;/div&gt;&lt;div&gt;&amp;nbsp; &lt;span style=&quot;color: #ec8e2c;&quot;&gt;for&lt;/span&gt;(&lt;span style=&quot;color: #ec8e2c;&quot;&gt;var&lt;/span&gt; i &lt;span style=&quot;color: #ec8e2c;&quot;&gt;=&lt;/span&gt; &lt;span style=&quot;color: #79c0ff;&quot;&gt;1&lt;/span&gt;; i &lt;span style=&quot;color: #ec8e2c;&quot;&gt;&amp;lt;=&lt;/span&gt; &lt;span style=&quot;color: #79c0ff;&quot;&gt;Math&lt;/span&gt;.&lt;span style=&quot;color: #d2a8ff;&quot;&gt;min&lt;/span&gt;(&lt;span style=&quot;color: #79c0ff;&quot;&gt;5&lt;/span&gt;, &lt;span style=&quot;color: #fdac54;&quot;&gt;n&lt;/span&gt;); i&lt;span style=&quot;color: #ec8e2c;&quot;&gt;++&lt;/span&gt;){&lt;/div&gt;&lt;div&gt;&amp;nbsp; &amp;nbsp; &lt;span style=&quot;color: #79c0ff;&quot;&gt;console&lt;/span&gt;.&lt;span style=&quot;color: #d2a8ff;&quot;&gt;log&lt;/span&gt;(i);&lt;/div&gt;&lt;div&gt;&amp;nbsp; }&lt;/div&gt;&lt;div&gt;}&lt;/div&gt;&lt;/div&gt;" style="text;html=1;align=left;verticalAlign=middle;resizable=0;points=[];autosize=1;strokeColor=none;fillColor=none;fontSize=24;" vertex="1" parent="1">
                    <mxGeometry x="35" y="6825" width="350" height="110" as="geometry"/>
                </mxCell>
                <mxCell id="89" value="O(1)" style="text;html=1;align=center;verticalAlign=middle;resizable=0;points=[];autosize=1;strokeColor=none;fillColor=none;fontSize=24;" vertex="1" parent="1">
                    <mxGeometry x="455" y="6860" width="70" height="40" as="geometry"/>
                </mxCell>
                <mxCell id="90" value="&lt;img style=&quot;height: auto; color: rgb(51, 51, 51); font-family: inter-regular, system-ui, -apple-system, BlinkMacSystemFont, &amp;quot;Segoe UI&amp;quot;, Roboto, &amp;quot;Helvetica Neue&amp;quot;, Helvetica, Arial, sans-serif; font-size: 16px; text-align: justify; background-color: rgb(255, 255, 255);&quot; alt=&quot;Time Complexity in Data Structure&quot; src=&quot;https://static.javatpoint.com/ds/images/time-complexity-in-data-structure.png&quot;&gt;&lt;span style=&quot;color: rgb(51, 51, 51); font-family: inter-regular, system-ui, -apple-system, BlinkMacSystemFont, &amp;quot;Segoe UI&amp;quot;, Roboto, &amp;quot;Helvetica Neue&amp;quot;, Helvetica, Arial, sans-serif; font-size: 16px; text-align: justify; background-color: rgb(255, 255, 255);&quot;&gt;&lt;/span&gt;&lt;h3 style=&quot;line-height: 1.3em; font-weight: 400; font-family: erdana, helvetica, arial, sans-serif; color: rgb(97, 11, 75); font-size: 21px; text-align: justify; background-color: rgb(255, 255, 255);&quot; class=&quot;h3&quot;&gt;a) O(1) - Constant Time Complexity:&lt;/h3&gt;" style="text;html=1;align=center;verticalAlign=middle;resizable=0;points=[];autosize=1;strokeColor=none;fillColor=none;fontSize=24;" vertex="1" parent="1">
                    <mxGeometry x="35" y="6950" width="620" height="470" as="geometry"/>
                </mxCell>
                <mxCell id="91" value="Space Complexity&lt;br&gt;&lt;br&gt;So far, we've been focusing on time complexity:&lt;br&gt;how can we analyze the runtime of an algorithm as&amp;nbsp;&lt;br&gt;the size of the inputs increases?&lt;br&gt;&lt;br&gt;We can also use big O notation&amp;nbsp; to analyze space complexity:&lt;br&gt;how much additional memory do we need to allocate in order&lt;br&gt;to run the code in our algorithm?" style="text;html=1;align=center;verticalAlign=middle;resizable=0;points=[];autosize=1;strokeColor=none;fillColor=none;fontSize=24;" vertex="1" parent="1">
                    <mxGeometry x="40" y="7380" width="680" height="270" as="geometry"/>
                </mxCell>
                <mxCell id="92" value="&lt;b&gt;What about the inputs?&lt;/b&gt;&lt;br&gt;&lt;br&gt;Sometimes you'll hear the term auxiliary space&lt;br&gt;complexity to refer to space required by the algorithm,&amp;nbsp;&lt;br&gt;not including space taken up by the inputs.&lt;br&gt;&lt;br&gt;Unless otherwise noted, when we talk about space complexity,&amp;nbsp;&lt;br&gt;technically we'll be talking about auxiliary space complexity." style="text;html=1;align=center;verticalAlign=middle;resizable=0;points=[];autosize=1;strokeColor=none;fillColor=none;fontSize=24;" vertex="1" parent="1">
                    <mxGeometry x="30" y="7740" width="690" height="240" as="geometry"/>
                </mxCell>
                <mxCell id="93" value="Space Coplexity in JS&lt;br&gt;Rules of Thumb&lt;br&gt;&lt;br&gt;&lt;div style=&quot;text-align: left;&quot;&gt;&lt;span style=&quot;background-color: initial;&quot;&gt;--&amp;gt; Most primitives (booleans, numbers, undefined, null)&amp;nbsp;&lt;/span&gt;&lt;/div&gt;&lt;div style=&quot;text-align: left;&quot;&gt;&lt;span style=&quot;background-color: initial;&quot;&gt;are constant space&lt;/span&gt;&lt;/div&gt;&lt;div style=&quot;text-align: left;&quot;&gt;&lt;span style=&quot;background-color: initial;&quot;&gt;--&amp;gt; Strings requireO(n) space (were n is the string length)&lt;/span&gt;&lt;/div&gt;&lt;div style=&quot;text-align: left;&quot;&gt;&lt;span style=&quot;background-color: initial;&quot;&gt;--&amp;gt; Reference types are generally O(n), where n is the length&lt;/span&gt;&lt;/div&gt;&lt;div style=&quot;text-align: left;&quot;&gt;&lt;span style=&quot;background-color: initial;&quot;&gt;(for arrays) of the number of keys (keys (for objects)&lt;/span&gt;&lt;/div&gt;" style="text;html=1;align=center;verticalAlign=middle;resizable=0;points=[];autosize=1;strokeColor=none;fillColor=none;fontSize=24;" vertex="1" parent="1">
                    <mxGeometry x="45" y="8120" width="670" height="240" as="geometry"/>
                </mxCell>
                <mxCell id="94" value="An Example" style="text;html=1;align=center;verticalAlign=middle;resizable=0;points=[];autosize=1;strokeColor=none;fillColor=none;fontSize=24;" vertex="1" parent="1">
                    <mxGeometry x="320" y="8440" width="150" height="40" as="geometry"/>
                </mxCell>
                <mxCell id="95" value="&lt;div style=&quot;color: rgb(201, 209, 217); background-color: rgb(13, 17, 23); font-family: Consolas, &amp;quot;Courier New&amp;quot;, monospace; font-size: 14px; line-height: 19px;&quot;&gt;&lt;div&gt;&lt;span style=&quot;color: #ec8e2c;&quot;&gt;function&lt;/span&gt; &lt;span style=&quot;color: #d2a8ff;&quot;&gt;sum&lt;/span&gt;(&lt;span style=&quot;color: #fdac54;&quot;&gt;arr&lt;/span&gt;){&lt;/div&gt;&lt;div&gt;&amp;nbsp; &lt;span style=&quot;color: #ec8e2c;&quot;&gt;let&lt;/span&gt; total &lt;span style=&quot;color: #ec8e2c;&quot;&gt;=&lt;/span&gt; &lt;span style=&quot;color: #79c0ff;&quot;&gt;0&lt;/span&gt;;&lt;/div&gt;&lt;br&gt;&lt;div&gt;&amp;nbsp; &lt;span style=&quot;color: #ec8e2c;&quot;&gt;for&lt;/span&gt;(&lt;span style=&quot;color: #ec8e2c;&quot;&gt;let&lt;/span&gt; i &lt;span style=&quot;color: #ec8e2c;&quot;&gt;=&lt;/span&gt; &lt;span style=&quot;color: #79c0ff;&quot;&gt;0&lt;/span&gt;; i &lt;span style=&quot;color: #ec8e2c;&quot;&gt;&amp;lt;&lt;/span&gt; &lt;span style=&quot;color: #fdac54;&quot;&gt;arr&lt;/span&gt;.&lt;span style=&quot;color: #79c0ff;&quot;&gt;length&lt;/span&gt;; i&lt;span style=&quot;color: #ec8e2c;&quot;&gt;++&lt;/span&gt;){&lt;/div&gt;&lt;div&gt;&amp;nbsp; &amp;nbsp; total &lt;span style=&quot;color: #ec8e2c;&quot;&gt;+=&lt;/span&gt; &lt;span style=&quot;color: #fdac54;&quot;&gt;arr&lt;/span&gt;[i];&lt;/div&gt;&lt;div&gt;&amp;nbsp; }&lt;/div&gt;&lt;div&gt;&amp;nbsp; &lt;span style=&quot;color: #ec8e2c;&quot;&gt;return&lt;/span&gt; total;&lt;/div&gt;&lt;br&gt;&lt;div&gt;}&lt;/div&gt;&lt;/div&gt;" style="text;html=1;align=left;verticalAlign=middle;resizable=0;points=[];autosize=1;strokeColor=none;fillColor=none;fontSize=24;" vertex="1" parent="1">
                    <mxGeometry x="450" y="8540" width="320" height="180" as="geometry"/>
                </mxCell>
                <mxCell id="97" style="edgeStyle=orthogonalEdgeStyle;html=1;entryX=0.281;entryY=0.222;entryDx=0;entryDy=0;entryPerimeter=0;fontSize=24;" edge="1" parent="1" source="96" target="95">
                    <mxGeometry relative="1" as="geometry">
                        <Array as="points">
                            <mxPoint x="540" y="8590"/>
                        </Array>
                    </mxGeometry>
                </mxCell>
                <mxCell id="96" value="one number" style="text;html=1;align=center;verticalAlign=middle;resizable=0;points=[];autosize=1;strokeColor=none;fillColor=none;fontSize=24;" vertex="1" parent="1">
                    <mxGeometry x="150" y="8560" width="150" height="40" as="geometry"/>
                </mxCell>
                <mxCell id="99" style="edgeStyle=orthogonalEdgeStyle;html=1;fontSize=24;" edge="1" parent="1" source="98">
                    <mxGeometry relative="1" as="geometry">
                        <mxPoint x="540" y="8610" as="targetPoint"/>
                    </mxGeometry>
                </mxCell>
                <mxCell id="98" value="another number" style="text;html=1;align=center;verticalAlign=middle;resizable=0;points=[];autosize=1;strokeColor=none;fillColor=none;fontSize=24;" vertex="1" parent="1">
                    <mxGeometry x="85" y="8630" width="190" height="40" as="geometry"/>
                </mxCell>
                <mxCell id="100" value="O(1) space!" style="text;html=1;align=center;verticalAlign=middle;resizable=0;points=[];autosize=1;strokeColor=none;fillColor=none;fontSize=24;" vertex="1" parent="1">
                    <mxGeometry x="345" y="8740" width="150" height="40" as="geometry"/>
                </mxCell>
                <mxCell id="101" value="Another Example" style="text;html=1;align=center;verticalAlign=middle;resizable=0;points=[];autosize=1;strokeColor=none;fillColor=none;fontSize=24;" vertex="1" parent="1">
                    <mxGeometry x="305" y="8880" width="210" height="40" as="geometry"/>
                </mxCell>
                <mxCell id="102" value="&lt;div style=&quot;color: rgb(201, 209, 217); background-color: rgb(13, 17, 23); font-family: Consolas, &amp;quot;Courier New&amp;quot;, monospace; font-size: 14px; line-height: 19px;&quot;&gt;&lt;div&gt;&lt;span style=&quot;color: #ec8e2c;&quot;&gt;function&lt;/span&gt; &lt;span style=&quot;color: #d2a8ff;&quot;&gt;double&lt;/span&gt;(&lt;span style=&quot;color: #fdac54;&quot;&gt;arr&lt;/span&gt;){&lt;/div&gt;&lt;div&gt;&amp;nbsp; &lt;span style=&quot;color: #ec8e2c;&quot;&gt;let&lt;/span&gt; newArr &lt;span style=&quot;color: #ec8e2c;&quot;&gt;=&lt;/span&gt; [];&lt;/div&gt;&lt;div&gt;&amp;nbsp; &lt;span style=&quot;color: #ec8e2c;&quot;&gt;for&lt;/span&gt;(&lt;span style=&quot;color: #ec8e2c;&quot;&gt;let&lt;/span&gt; i &lt;span style=&quot;color: #ec8e2c;&quot;&gt;=&lt;/span&gt; &lt;span style=&quot;color: #79c0ff;&quot;&gt;0&lt;/span&gt;; i &lt;span style=&quot;color: #ec8e2c;&quot;&gt;&amp;lt;&lt;/span&gt; &lt;span style=&quot;color: #fdac54;&quot;&gt;arr&lt;/span&gt;.&lt;span style=&quot;color: #79c0ff;&quot;&gt;length&lt;/span&gt;; i&lt;span style=&quot;color: #ec8e2c;&quot;&gt;++&lt;/span&gt;){&lt;/div&gt;&lt;div&gt;&amp;nbsp; &amp;nbsp; newArr.&lt;span style=&quot;color: #d2a8ff;&quot;&gt;push&lt;/span&gt;(&lt;span style=&quot;color: #fdac54;&quot;&gt;arr&lt;/span&gt;[i] &lt;span style=&quot;color: #ec8e2c;&quot;&gt;*&lt;/span&gt; &lt;span style=&quot;color: #79c0ff;&quot;&gt;2&lt;/span&gt;);&lt;/div&gt;&lt;div&gt;&amp;nbsp; }&lt;/div&gt;&lt;div&gt;&amp;nbsp; &lt;span style=&quot;color: #ec8e2c;&quot;&gt;return&lt;/span&gt; newArr;&lt;/div&gt;&lt;div&gt;}&lt;/div&gt;&lt;/div&gt;" style="text;html=1;align=left;verticalAlign=middle;resizable=0;points=[];autosize=1;strokeColor=none;fillColor=none;fontSize=24;" vertex="1" parent="1">
                    <mxGeometry x="390" y="8960" width="320" height="150" as="geometry"/>
                </mxCell>
                <mxCell id="104" style="edgeStyle=orthogonalEdgeStyle;html=1;fontSize=24;" edge="1" parent="1" source="103">
                    <mxGeometry relative="1" as="geometry">
                        <mxPoint x="490" y="9090" as="targetPoint"/>
                    </mxGeometry>
                </mxCell>
                <mxCell id="103" value="n numbers" style="text;html=1;align=center;verticalAlign=middle;resizable=0;points=[];autosize=1;strokeColor=none;fillColor=none;fontSize=24;" vertex="1" parent="1">
                    <mxGeometry x="220" y="9110" width="140" height="40" as="geometry"/>
                </mxCell>
                <mxCell id="105" value="O(n) space!" style="text;html=1;align=center;verticalAlign=middle;resizable=0;points=[];autosize=1;strokeColor=none;fillColor=none;fontSize=24;" vertex="1" parent="1">
                    <mxGeometry x="395" y="9160" width="150" height="40" as="geometry"/>
                </mxCell>
                <mxCell id="106" value="Logarithms&lt;br&gt;&lt;br&gt;We've encountered some of the most&amp;nbsp;&lt;br&gt;common complexities: O(1), O(n), O(n^2)&lt;br&gt;&lt;br&gt;Sometimes big O expression involve&amp;nbsp;&lt;br&gt;more complex mathematical expressions&lt;br&gt;&lt;br&gt;One that appears more often than you&amp;nbsp;&lt;br&gt;might like is the logarithm!" style="text;html=1;align=center;verticalAlign=middle;resizable=0;points=[];autosize=1;strokeColor=none;fillColor=none;fontSize=24;" vertex="1" parent="1">
                    <mxGeometry x="145" y="9300" width="460" height="300" as="geometry"/>
                </mxCell>
                <mxCell id="107" value="Wait, What's a log again?" style="text;html=1;align=center;verticalAlign=middle;resizable=0;points=[];autosize=1;strokeColor=none;fillColor=none;fontSize=24;" vertex="1" parent="1">
                    <mxGeometry x="195" y="9650" width="290" height="40" as="geometry"/>
                </mxCell>
                <mxCell id="110" value="" style="edgeStyle=orthogonalEdgeStyle;html=1;fontSize=24;" edge="1" parent="1" source="108" target="109">
                    <mxGeometry relative="1" as="geometry"/>
                </mxCell>
                <mxCell id="108" value="log&lt;sub&gt;2&lt;/sub&gt;&amp;nbsp;(8) = 3" style="text;html=1;align=center;verticalAlign=middle;resizable=0;points=[];autosize=1;strokeColor=none;fillColor=none;fontSize=24;" vertex="1" parent="1">
                    <mxGeometry x="150" y="9705" width="140" height="50" as="geometry"/>
                </mxCell>
                <mxCell id="109" value="2&lt;sup&gt;3&amp;nbsp;&lt;/sup&gt;&amp;nbsp;= 8" style="text;html=1;align=center;verticalAlign=middle;resizable=0;points=[];autosize=1;strokeColor=none;fillColor=none;fontSize=24;" vertex="1" parent="1">
                    <mxGeometry x="395" y="9705" width="90" height="50" as="geometry"/>
                </mxCell>
                <mxCell id="115" value="" style="edgeStyle=orthogonalEdgeStyle;html=1;fontSize=24;" edge="1" parent="1" source="111" target="114">
                    <mxGeometry relative="1" as="geometry"/>
                </mxCell>
                <mxCell id="111" value="log&lt;sub&gt;2 &lt;/sub&gt;(value) = exponent" style="text;html=1;align=center;verticalAlign=middle;resizable=0;points=[];autosize=1;strokeColor=none;fillColor=none;fontSize=24;" vertex="1" parent="1">
                    <mxGeometry x="40" y="9810" width="270" height="50" as="geometry"/>
                </mxCell>
                <mxCell id="114" value="2&lt;sup&gt;exponent &lt;/sup&gt;= value" style="text;html=1;align=center;verticalAlign=middle;resizable=0;points=[];autosize=1;strokeColor=none;fillColor=none;fontSize=24;" vertex="1" parent="1">
                    <mxGeometry x="425" y="9810" width="200" height="50" as="geometry"/>
                </mxCell>
                <mxCell id="116" value="We'll omit the 2.&lt;br&gt;log === log&lt;sub&gt;2&lt;/sub&gt;" style="text;html=1;align=center;verticalAlign=middle;resizable=0;points=[];autosize=1;strokeColor=none;fillColor=none;fontSize=24;" vertex="1" parent="1">
                    <mxGeometry x="230" y="9920" width="190" height="80" as="geometry"/>
                </mxCell>
                <mxCell id="117" value="Wut.&amp;nbsp;&lt;br&gt;&lt;br&gt;This isn't a math course, so here's a rule of thumb.&lt;br&gt;&lt;br&gt;The logarithm of a number roughly measures the&lt;br&gt;numbrer of times you can divide that number by 2&lt;br&gt;&lt;b&gt;before you get a value that's less than or equal&amp;nbsp;&lt;br&gt;&lt;/b&gt;to one." style="text;html=1;align=center;verticalAlign=middle;resizable=0;points=[];autosize=1;strokeColor=none;fillColor=none;fontSize=24;" vertex="1" parent="1">
                    <mxGeometry x="70" y="10010" width="560" height="240" as="geometry"/>
                </mxCell>
                <mxCell id="118" value="Logarithm Examples" style="text;html=1;align=center;verticalAlign=middle;resizable=0;points=[];autosize=1;strokeColor=none;fillColor=none;fontSize=24;" vertex="1" parent="1">
                    <mxGeometry x="190" y="10330" width="240" height="40" as="geometry"/>
                </mxCell>
                <mxCell id="119" value="8&lt;br&gt;4&lt;br&gt;2&lt;br&gt;1&lt;br&gt;log(8) = 3" style="text;html=1;align=center;verticalAlign=middle;resizable=0;points=[];autosize=1;strokeColor=none;fillColor=none;fontSize=24;" vertex="1" parent="1">
                    <mxGeometry x="175" y="10430" width="130" height="160" as="geometry"/>
                </mxCell>
                <mxCell id="120" value="/2&lt;br&gt;/2&lt;br&gt;/2" style="text;html=1;align=center;verticalAlign=middle;resizable=0;points=[];autosize=1;strokeColor=none;fillColor=none;fontSize=24;" vertex="1" parent="1">
                    <mxGeometry x="175" y="10450" width="40" height="100" as="geometry"/>
                </mxCell>
                <mxCell id="121" value="25&lt;br&gt;12.5&lt;br&gt;6.25&lt;br&gt;3.125&lt;br&gt;1.5625&lt;br&gt;0.78125&lt;br&gt;log(25) ~ 4.64" style="text;html=1;align=center;verticalAlign=middle;resizable=0;points=[];autosize=1;strokeColor=none;fillColor=none;fontSize=24;" vertex="1" parent="1">
                    <mxGeometry x="370" y="10410" width="170" height="220" as="geometry"/>
                </mxCell>
                <mxCell id="122" value="&lt;font style=&quot;font-size: 14px;&quot;&gt;/2&lt;br&gt;/2&lt;br&gt;/2&lt;br&gt;/2&lt;br&gt;/2&lt;br&gt;&lt;/font&gt;" style="text;html=1;align=center;verticalAlign=middle;resizable=0;points=[];autosize=1;strokeColor=none;fillColor=none;fontSize=24;" vertex="1" parent="1">
                    <mxGeometry x="525" y="10420" width="40" height="160" as="geometry"/>
                </mxCell>
                <mxCell id="123" value="&lt;font color=&quot;#ff0000&quot; style=&quot;font-size: 24px;&quot;&gt;Who Cares?&lt;/font&gt;" style="text;html=1;align=center;verticalAlign=middle;resizable=0;points=[];autosize=1;strokeColor=none;fillColor=none;fontSize=14;" vertex="1" parent="1">
                    <mxGeometry x="270" y="10660" width="160" height="40" as="geometry"/>
                </mxCell>
                <mxCell id="124" value="&lt;font color=&quot;#ffffff&quot;&gt;certain serching algorithms have&lt;br&gt;logarithmic time complexity.&lt;br&gt;&lt;br&gt;Efficient sorting algorithms&lt;br&gt;involve logarithms.&lt;br&gt;&lt;br&gt;Recursiion sometimes involves&lt;br&gt;logarithmic space complexity.&lt;br&gt;&lt;/font&gt;" style="text;html=1;align=center;verticalAlign=middle;resizable=0;points=[];autosize=1;strokeColor=none;fillColor=none;fontSize=24;fontColor=#FF0000;" vertex="1" parent="1">
                    <mxGeometry x="160" y="10710" width="370" height="240" as="geometry"/>
                </mxCell>
                <mxCell id="125" value="&lt;img style=&quot;height: auto; color: rgb(51, 51, 51); font-family: inter-regular, system-ui, -apple-system, BlinkMacSystemFont, &amp;quot;Segoe UI&amp;quot;, Roboto, &amp;quot;Helvetica Neue&amp;quot;, Helvetica, Arial, sans-serif; font-size: 16px; text-align: justify; background-color: rgb(255, 255, 255);&quot; alt=&quot;Time Complexity in Data Structure&quot; src=&quot;https://static.javatpoint.com/ds/images/time-complexity-in-data-structure.png&quot;&gt;&lt;span style=&quot;color: rgb(51, 51, 51); font-family: inter-regular, system-ui, -apple-system, BlinkMacSystemFont, &amp;quot;Segoe UI&amp;quot;, Roboto, &amp;quot;Helvetica Neue&amp;quot;, Helvetica, Arial, sans-serif; font-size: 16px; text-align: justify; background-color: rgb(255, 255, 255);&quot;&gt;&lt;/span&gt;&lt;h3 style=&quot;line-height: 1.3em; font-weight: 400; font-family: erdana, helvetica, arial, sans-serif; color: rgb(97, 11, 75); font-size: 21px; text-align: justify; background-color: rgb(255, 255, 255);&quot; class=&quot;h3&quot;&gt;a) O(1) - Constant Time Complexity:&lt;/h3&gt;" style="text;html=1;align=center;verticalAlign=middle;resizable=0;points=[];autosize=1;strokeColor=none;fillColor=none;fontSize=24;" vertex="1" parent="1">
                    <mxGeometry x="25" y="10970" width="620" height="470" as="geometry"/>
                </mxCell>
                <mxCell id="126" value="&lt;font color=&quot;#cc6600&quot;&gt;&lt;b&gt;Recap&lt;/b&gt;&lt;/font&gt;" style="text;html=1;align=center;verticalAlign=middle;resizable=0;points=[];autosize=1;strokeColor=none;fillColor=none;fontSize=24;fontColor=#FFFFFF;" vertex="1" parent="1">
                    <mxGeometry x="350" y="11480" width="100" height="40" as="geometry"/>
                </mxCell>
                <mxCell id="127" value="&lt;div style=&quot;text-align: left;&quot;&gt;&lt;span style=&quot;color: rgb(255, 255, 255); background-color: initial;&quot;&gt;--&amp;gt; To analyze the performance of an algorithm, we use Big O Notation&lt;/span&gt;&lt;/div&gt;&lt;font color=&quot;#ffffff&quot;&gt;&lt;div style=&quot;text-align: left;&quot;&gt;&lt;span style=&quot;background-color: initial;&quot;&gt;--&amp;gt; Big O Notation can give us a high level understanding&amp;nbsp;&lt;/span&gt;&lt;/div&gt;&lt;div style=&quot;text-align: left;&quot;&gt;&lt;span style=&quot;background-color: initial;&quot;&gt;of the time or space complexity of an algorithm&lt;/span&gt;&lt;/div&gt;&lt;div style=&quot;text-align: left;&quot;&gt;&lt;span style=&quot;background-color: initial;&quot;&gt;--&amp;gt; Big O Notation doesn't care about precision, only&lt;/span&gt;&lt;/div&gt;&lt;div style=&quot;text-align: left;&quot;&gt;&lt;span style=&quot;background-color: initial;&quot;&gt;&amp;nbsp;about general trends (linear? quadratic? constant?)&lt;/span&gt;&lt;/div&gt;&lt;div style=&quot;text-align: left;&quot;&gt;&lt;span style=&quot;background-color: initial;&quot;&gt;--&amp;gt; The time or space complexity (as measured by Big O)&lt;/span&gt;&lt;/div&gt;&lt;div style=&quot;text-align: left;&quot;&gt;&lt;span style=&quot;background-color: initial;&quot;&gt;depends only on the algorithm, not the hardware&lt;/span&gt;&lt;/div&gt;&lt;div style=&quot;text-align: left;&quot;&gt;&lt;span style=&quot;background-color: initial;&quot;&gt;used to run the algorithm.&lt;/span&gt;&lt;/div&gt;&lt;div style=&quot;text-align: left;&quot;&gt;&lt;span style=&quot;background-color: initial;&quot;&gt;--&amp;gt; Big ONotation is everywhere, so get lots of practice!&lt;/span&gt;&lt;/div&gt;&lt;/font&gt;" style="text;html=1;align=center;verticalAlign=middle;resizable=0;points=[];autosize=1;strokeColor=none;fillColor=none;fontSize=24;fontColor=#CC6600;" vertex="1" parent="1">
                    <mxGeometry x="60" y="11550" width="770" height="270" as="geometry"/>
                </mxCell>
                <mxCell id="128" value="&lt;font color=&quot;#ff0000&quot;&gt;BUILT - IN DATA&lt;/font&gt;&lt;br&gt;&lt;font color=&quot;#ff0000&quot;&gt;STRUCTURES&lt;/font&gt;&lt;br&gt;Through the lens of Big O" style="text;html=1;align=center;verticalAlign=middle;resizable=0;points=[];autosize=1;strokeColor=none;fillColor=none;fontSize=24;fontColor=#FFFFFF;" vertex="1" parent="1">
                    <mxGeometry x="200" y="12120" width="300" height="100" as="geometry"/>
                </mxCell>
                <mxCell id="129" value="&lt;font color=&quot;#a7c8cc&quot;&gt;Now that we've covered BIG O...&lt;br&gt;Let's spend a couple minuts&amp;nbsp;&lt;br&gt;analyzing the things we do all the time in JS: working with arrays,&lt;br&gt;Objects, and built-in methods.&lt;br&gt;&lt;/font&gt;" style="text;html=1;align=center;verticalAlign=middle;resizable=0;points=[];autosize=1;strokeColor=none;fillColor=none;fontSize=24;fontColor=#FFFFFF;" vertex="1" parent="1">
                    <mxGeometry x="15" y="12250" width="710" height="130" as="geometry"/>
                </mxCell>
                <mxCell id="130" value="&lt;font color=&quot;#00ffff&quot;&gt;OBJECTIVES&lt;/font&gt;&lt;br&gt;&lt;font color=&quot;#ffffff&quot;&gt;&lt;br&gt;--&amp;gt; Understand how objects and arrays work,&amp;nbsp;&lt;br&gt;through the lens of Big O&lt;br&gt;&lt;br&gt;--&amp;gt; Explain why adding elements to the beginning&lt;br&gt;of an array is costly&lt;br&gt;&lt;br&gt;--&amp;gt; Compare and contrast the runtime for arrays&amp;nbsp;&lt;br&gt;and objects, as well as built-in&amp;nbsp; methods&lt;/font&gt;&amp;nbsp;" style="text;html=1;align=center;verticalAlign=middle;resizable=0;points=[];autosize=1;strokeColor=none;fillColor=none;fontSize=24;fontColor=#A7C8CC;" vertex="1" parent="1">
                    <mxGeometry x="65" y="12470" width="550" height="300" as="geometry"/>
                </mxCell>
                <mxCell id="131" value="&lt;font color=&quot;#00ffff&quot;&gt;OBJECTS&lt;/font&gt;&lt;br&gt;Unordered, key value pairs!" style="text;html=1;align=center;verticalAlign=middle;resizable=0;points=[];autosize=1;strokeColor=none;fillColor=none;fontSize=24;fontColor=#FFFFFF;" vertex="1" parent="1">
                    <mxGeometry x="235" y="12840" width="320" height="70" as="geometry"/>
                </mxCell>
                <mxCell id="132" value="&lt;div style=&quot;color: rgb(201, 209, 217); background-color: rgb(13, 17, 23); font-family: Consolas, &amp;quot;Courier New&amp;quot;, monospace; line-height: 19px;&quot;&gt;&lt;div style=&quot;&quot;&gt;&lt;span style=&quot;color: rgb(139, 148, 158);&quot;&gt;&lt;font style=&quot;font-size: 18px;&quot;&gt;// Objects&lt;/font&gt;&lt;/span&gt;&lt;/div&gt;&lt;font size=&quot;3&quot;&gt;&lt;br&gt;&lt;/font&gt;&lt;div style=&quot;&quot;&gt;&lt;font size=&quot;3&quot;&gt;&lt;span style=&quot;color: #ec8e2c;&quot;&gt;let&lt;/span&gt; instructor &lt;span style=&quot;color: #ec8e2c;&quot;&gt;=&lt;/span&gt; {&lt;/font&gt;&lt;/div&gt;&lt;div style=&quot;&quot;&gt;&lt;font size=&quot;3&quot;&gt;&amp;nbsp; firstName: &lt;span style=&quot;color: #a5d6ff;&quot;&gt;&quot;Dheeraj&quot;&lt;/span&gt;,&lt;/font&gt;&lt;/div&gt;&lt;div style=&quot;&quot;&gt;&lt;font size=&quot;3&quot;&gt;&amp;nbsp; isInstructor: &lt;span style=&quot;color: #79c0ff;&quot;&gt;true&lt;/span&gt;,&lt;/font&gt;&lt;/div&gt;&lt;div style=&quot;&quot;&gt;&lt;font size=&quot;3&quot;&gt;&amp;nbsp; favoriteNumbers: [&lt;span style=&quot;color: #79c0ff;&quot;&gt;1&lt;/span&gt;,&lt;span style=&quot;color: #79c0ff;&quot;&gt;2&lt;/span&gt;,&lt;span style=&quot;color: #79c0ff;&quot;&gt;3&lt;/span&gt;,&lt;span style=&quot;color: #79c0ff;&quot;&gt;4&lt;/span&gt;]&lt;/font&gt;&lt;/div&gt;&lt;div style=&quot;&quot;&gt;&lt;font size=&quot;3&quot;&gt;}&lt;/font&gt;&lt;/div&gt;&lt;/div&gt;" style="text;html=1;align=left;verticalAlign=middle;resizable=0;points=[];autosize=1;strokeColor=none;fillColor=none;fontSize=24;fontColor=#FFFFFF;" vertex="1" parent="1">
                    <mxGeometry x="245" y="12925" width="270" height="160" as="geometry"/>
                </mxCell>
                <mxCell id="133" value="&lt;br&gt;&lt;font color=&quot;#00ffff&quot;&gt;When to use objects&lt;/font&gt;&lt;br&gt;&lt;div style=&quot;text-align: left;&quot;&gt;&lt;span style=&quot;background-color: initial;&quot;&gt;&lt;br&gt;&lt;/span&gt;&lt;/div&gt;&lt;div style=&quot;text-align: left;&quot;&gt;&lt;span style=&quot;background-color: initial;&quot;&gt;--&amp;gt;When you don't need order&lt;/span&gt;&lt;/div&gt;&lt;div style=&quot;text-align: left;&quot;&gt;&lt;span style=&quot;background-color: initial;&quot;&gt;--&amp;gt; when you need fast access / insertion&lt;/span&gt;&lt;/div&gt;&lt;div style=&quot;text-align: left;&quot;&gt;&lt;span style=&quot;background-color: initial;&quot;&gt;and removel&lt;/span&gt;&lt;/div&gt;" style="text;html=1;align=center;verticalAlign=middle;resizable=0;points=[];autosize=1;strokeColor=none;fillColor=none;fontSize=18;fontColor=#FFFFFF;" vertex="1" parent="1">
                    <mxGeometry x="175" y="13210" width="350" height="140" as="geometry"/>
                </mxCell>
                <mxCell id="134" value="&lt;font color=&quot;#00ffff&quot;&gt;Big O of Objects&lt;/font&gt;&lt;br&gt;&lt;br&gt;Insertion - O(1)&lt;br&gt;Removal - O(1)&lt;br&gt;Searching - O(N)&lt;br&gt;Access - O(1)&lt;br&gt;&lt;br&gt;When you don't need any ordering&amp;nbsp;&amp;nbsp;&lt;br&gt;objects are an excellent choice!" style="text;html=1;align=center;verticalAlign=middle;resizable=0;points=[];autosize=1;strokeColor=none;fillColor=none;fontSize=18;fontColor=#FFFFFF;" vertex="1" parent="1">
                    <mxGeometry x="190" y="13355" width="310" height="210" as="geometry"/>
                </mxCell>
                <mxCell id="135" value="&lt;font color=&quot;#ff0000&quot;&gt;Big O of Object Methods&lt;/font&gt;&lt;br&gt;&lt;br&gt;object.keys - O(n)&lt;br&gt;object.values - O(n)&lt;br&gt;object.entries - O(n)&lt;br&gt;hasOwnProperty - O(1)" style="text;html=1;align=center;verticalAlign=middle;resizable=0;points=[];autosize=1;strokeColor=none;fillColor=none;fontSize=18;fontColor=#FFFFFF;" vertex="1" parent="1">
                    <mxGeometry x="245" y="13600" width="220" height="140" as="geometry"/>
                </mxCell>
                <mxCell id="136" value="&lt;font style=&quot;font-size: 36px;&quot;&gt;&lt;font color=&quot;#0000cc&quot;&gt;ARRAYS&lt;/font&gt;&lt;br&gt;Ordered lists!&lt;br&gt;&lt;/font&gt;" style="text;html=1;align=center;verticalAlign=middle;resizable=0;points=[];autosize=1;strokeColor=none;fillColor=none;fontSize=18;fontColor=#FFFFFF;" vertex="1" parent="1">
                    <mxGeometry x="220" y="13810" width="240" height="100" as="geometry"/>
                </mxCell>
                <mxCell id="137" value="&lt;div style=&quot;color: rgb(201, 209, 217); background-color: rgb(13, 17, 23); font-family: Consolas, &amp;quot;Courier New&amp;quot;, monospace; font-size: 14px; line-height: 19px;&quot;&gt;&lt;br&gt;&lt;div&gt;&lt;span style=&quot;color: #8b949e;&quot;&gt;// Arays&lt;/span&gt;&lt;/div&gt;&lt;br&gt;&lt;div&gt;&lt;span style=&quot;color: #ec8e2c;&quot;&gt;let&lt;/span&gt; names &lt;span style=&quot;color: #ec8e2c;&quot;&gt;=&lt;/span&gt; [&lt;span style=&quot;color: #a5d6ff;&quot;&gt;&quot;Dheeraj&quot;&lt;/span&gt;, &lt;span style=&quot;color: #a5d6ff;&quot;&gt;&quot;Niraj&quot;&lt;/span&gt;, &lt;span style=&quot;color: #a5d6ff;&quot;&gt;&quot;Saurabh&quot;&lt;/span&gt;];&lt;/div&gt;&lt;br&gt;&lt;div&gt;&lt;span style=&quot;color: #ec8e2c;&quot;&gt;let&lt;/span&gt; values &lt;span style=&quot;color: #ec8e2c;&quot;&gt;=&lt;/span&gt; [&lt;span style=&quot;color: #79c0ff;&quot;&gt;true&lt;/span&gt;, {}, [], &lt;span style=&quot;color: #79c0ff;&quot;&gt;2&lt;/span&gt;, &lt;span style=&quot;color: #a5d6ff;&quot;&gt;&quot;awesome&quot;&lt;/span&gt;];&lt;/div&gt;&lt;/div&gt;" style="text;html=1;align=left;verticalAlign=middle;resizable=0;points=[];autosize=1;strokeColor=none;fillColor=none;fontSize=18;fontColor=#FFFFFF;" vertex="1" parent="1">
                    <mxGeometry x="180" y="13915" width="360" height="130" as="geometry"/>
                </mxCell>
                <mxCell id="138" value="&lt;font color=&quot;#00ff00&quot;&gt;WHEN TO USE ARRAYS&lt;/font&gt;&lt;br&gt;&lt;br&gt;--&amp;gt; When you need order&lt;br&gt;--&amp;gt; When&amp;nbsp; you need fast&amp;nbsp;&lt;br&gt;access / insertion and&lt;br&gt;removal (sort of...)" style="text;html=1;align=center;verticalAlign=middle;resizable=0;points=[];autosize=1;strokeColor=none;fillColor=none;fontSize=18;fontColor=#FFFFFF;" vertex="1" parent="1">
                    <mxGeometry x="225" y="14050" width="230" height="140" as="geometry"/>
                </mxCell>
                <mxCell id="139" value="&lt;font color=&quot;#ffff00&quot;&gt;Big O of Arrays&lt;/font&gt;&lt;br&gt;&lt;br&gt;insertion - It depends ...&lt;br&gt;Removal - It depends...&lt;br&gt;Searching - O(n)&lt;br&gt;Access - O(1)&lt;br&gt;&lt;br&gt;Let's see what we mean by that!" style="text;html=1;align=center;verticalAlign=middle;resizable=0;points=[];autosize=1;strokeColor=none;fillColor=none;fontSize=18;fontColor=#FFFFFF;" vertex="1" parent="1">
                    <mxGeometry x="205" y="14340" width="280" height="190" as="geometry"/>
                </mxCell>
                <mxCell id="140" value="&lt;font color=&quot;#ff0080&quot;&gt;Big O of Array Operations&lt;/font&gt;&lt;br&gt;&lt;div style=&quot;text-align: left;&quot;&gt;&lt;br&gt;&lt;/div&gt;&lt;div style=&quot;text-align: left;&quot;&gt;&lt;span style=&quot;background-color: initial;&quot;&gt;--&amp;gt; push&lt;/span&gt;&lt;span style=&quot;background-color: initial; white-space-collapse: preserve;&quot;&gt;&#9;&lt;/span&gt;&lt;span style=&quot;background-color: initial;&quot;&gt;- O(1)&lt;/span&gt;&lt;/div&gt;&lt;div style=&quot;text-align: left;&quot;&gt;&lt;span style=&quot;background-color: initial;&quot;&gt;--&amp;gt; pop&lt;/span&gt;&lt;span style=&quot;background-color: initial; white-space-collapse: preserve;&quot;&gt;&#9;&lt;/span&gt;&lt;span style=&quot;background-color: initial;&quot;&gt;- O(1)&lt;/span&gt;&lt;/div&gt;&lt;div style=&quot;text-align: left;&quot;&gt;&lt;span style=&quot;background-color: initial;&quot;&gt;--&amp;gt; shift&lt;/span&gt;&lt;span style=&quot;background-color: initial; white-space-collapse: preserve;&quot;&gt;&#9;&lt;/span&gt;&lt;span style=&quot;background-color: initial;&quot;&gt;- O(N)&lt;/span&gt;&lt;/div&gt;&lt;div style=&quot;text-align: left;&quot;&gt;&lt;span style=&quot;background-color: initial;&quot;&gt;--&amp;gt; unshift&lt;/span&gt;&lt;span style=&quot;background-color: initial; white-space-collapse: preserve;&quot;&gt;&#9;&lt;/span&gt;&lt;span style=&quot;background-color: initial;&quot;&gt;- O(N)&lt;/span&gt;&lt;/div&gt;&lt;div style=&quot;text-align: left;&quot;&gt;&lt;span style=&quot;background-color: initial;&quot;&gt;--&amp;gt; concat&amp;nbsp;&lt;/span&gt;&lt;span style=&quot;background-color: initial; white-space-collapse: preserve;&quot;&gt;&#9;&lt;/span&gt;&lt;span style=&quot;background-color: initial;&quot;&gt;- O(N)&lt;/span&gt;&lt;/div&gt;&lt;div style=&quot;text-align: left;&quot;&gt;&lt;span style=&quot;background-color: initial;&quot;&gt;--&amp;gt; slice&amp;nbsp;&lt;/span&gt;&lt;span style=&quot;background-color: initial; white-space-collapse: preserve;&quot;&gt;&#9;&lt;/span&gt;&lt;span style=&quot;background-color: initial;&quot;&gt;- O(N)&lt;/span&gt;&lt;/div&gt;&lt;div style=&quot;text-align: left;&quot;&gt;&lt;span style=&quot;background-color: initial;&quot;&gt;--&amp;gt; splice&amp;nbsp;&lt;/span&gt;&lt;span style=&quot;background-color: initial; white-space-collapse: preserve;&quot;&gt;&#9;&lt;/span&gt;&lt;span style=&quot;background-color: initial;&quot;&gt;- O(N)&lt;/span&gt;&lt;/div&gt;&lt;div style=&quot;text-align: left;&quot;&gt;&lt;span style=&quot;background-color: initial;&quot;&gt;--&amp;gt; sort&lt;/span&gt;&lt;span style=&quot;background-color: initial; white-space-collapse: preserve;&quot;&gt;&#9;&lt;/span&gt;&lt;span style=&quot;background-color: initial;&quot;&gt;- O(N * log N)&lt;/span&gt;&lt;/div&gt;&lt;div style=&quot;text-align: left;&quot;&gt;&lt;span style=&quot;background-color: initial;&quot;&gt;--&amp;gt; forEach/ map/ filter/ reduce / etc. - O(N)&lt;/span&gt;&lt;/div&gt;" style="text;html=1;align=center;verticalAlign=middle;resizable=0;points=[];autosize=1;strokeColor=none;fillColor=none;fontSize=18;fontColor=#FFFFFF;" vertex="1" parent="1">
                    <mxGeometry x="165" y="14550" width="370" height="250" as="geometry"/>
                </mxCell>
            </root>
        </mxGraphModel>
    </diagram>
</mxfile>